<svg width="780" height="424" xmlns="http://www.w3.org/2000/svg" xmlns:xlink="http://www.w3.org/1999/xlink" overflow="hidden"><defs><clipPath id="clip0"><rect x="253" y="212" width="780" height="424"/></clipPath><clipPath id="clip1"><rect x="254" y="212" width="779" height="423"/></clipPath><clipPath id="clip2"><rect x="254" y="212" width="779" height="423"/></clipPath><clipPath id="clip3"><rect x="254" y="212" width="779" height="423"/></clipPath><clipPath id="clip4"><rect x="355" y="220" width="670" height="327"/></clipPath><clipPath id="clip5"><rect x="355" y="220" width="670" height="327"/></clipPath><clipPath id="clip6"><rect x="355" y="220" width="670" height="327"/></clipPath><clipPath id="clip7"><rect x="355" y="220" width="670" height="327"/></clipPath><clipPath id="clip8"><rect x="355" y="220" width="670" height="327"/></clipPath><clipPath id="clip9"><rect x="355" y="220" width="670" height="327"/></clipPath><clipPath id="clip10"><rect x="355" y="220" width="670" height="327"/></clipPath><clipPath id="clip11"><rect x="355" y="220" width="670" height="327"/></clipPath><clipPath id="clip12"><rect x="355" y="220" width="670" height="327"/></clipPath><clipPath id="clip13"><rect x="355" y="220" width="670" height="327"/></clipPath><clipPath id="clip14"><rect x="355" y="220" width="670" height="327"/></clipPath><clipPath id="clip15"><rect x="355" y="220" width="670" height="327"/></clipPath><clipPath id="clip16"><rect x="355" y="220" width="670" height="327"/></clipPath><clipPath id="clip17"><rect x="355" y="220" width="670" height="327"/></clipPath><clipPath id="clip18"><rect x="355" y="220" width="670" height="327"/></clipPath><clipPath id="clip19"><rect x="355" y="220" width="670" height="327"/></clipPath><clipPath id="clip20"><rect x="355" y="220" width="670" height="327"/></clipPath><clipPath id="clip21"><rect x="355" y="220" width="670" height="327"/></clipPath><clipPath id="clip22"><rect x="355" y="220" width="670" height="327"/></clipPath><clipPath id="clip23"><rect x="355" y="220" width="670" height="327"/></clipPath></defs><g clip-path="url(#clip0)" transform="translate(-253 -212)"><g clip-path="url(#clip1)"><g clip-path="url(#clip2)"><g clip-path="url(#clip3)"><path d="M0 422.097 779 422.097 779 0 0 0Z" fill="#FFFFFF" transform="matrix(1 0 0 1.00167 254 212.099)"/><path d="M101.889 334.243 770.374 334.243 770.374 8.62562 101.889 8.62562Z" fill="#FFFFFF" transform="matrix(1 0 0 1.00167 254 212.099)"/><g clip-path="url(#clip4)"><path d="M114.744 334.243 179.021 334.243 179.021 24.1312 114.744 24.1312Z" stroke="#000000" stroke-width="1.797" fill="#40668C" transform="matrix(1 0 0 1.00167 254 212.099)"/></g><g clip-path="url(#clip5)"><path d="M179.021 334.243 243.299 334.243 243.299 113.392 179.021 113.392Z" stroke="#000000" stroke-width="1.797" fill="#40668C" transform="matrix(1 0 0 1.00167 254 212.099)"/></g><g clip-path="url(#clip6)"><path d="M243.299 334.243 307.576 334.243 307.576 141.684 243.299 141.684Z" stroke="#000000" stroke-width="1.797" fill="#40668C" transform="matrix(1 0 0 1.00167 254 212.099)"/></g><g clip-path="url(#clip7)"><path d="M307.576 334.243 371.854 334.243 371.854 173.485 307.576 173.485Z" stroke="#000000" stroke-width="1.797" fill="#40668C" transform="matrix(1 0 0 1.00167 254 212.099)"/></g><g clip-path="url(#clip8)"><path d="M371.854 334.243 436.132 334.243 436.132 194.1 371.854 194.1Z" stroke="#000000" stroke-width="1.797" fill="#40668C" transform="matrix(1 0 0 1.00167 254 212.099)"/></g><g clip-path="url(#clip9)"><path d="M436.132 334.243 500.409 334.243 500.409 207.698 436.132 207.698Z" stroke="#000000" stroke-width="1.797" fill="#40668C" transform="matrix(1 0 0 1.00167 254 212.099)"/></g><g clip-path="url(#clip10)"><path d="M500.409 334.243 564.686 334.243 564.686 267.351 500.409 267.351Z" stroke="#000000" stroke-width="1.797" fill="#40668C" transform="matrix(1 0 0 1.00167 254 212.099)"/></g><g clip-path="url(#clip11)"><path d="M564.686 334.243 628.963 334.243 628.963 276.124 564.686 276.124Z" stroke="#000000" stroke-width="1.797" fill="#40668C" transform="matrix(1 0 0 1.00167 254 212.099)"/></g><g clip-path="url(#clip12)"><path d="M628.963 334.243 693.241 334.243 693.241 282.265 628.963 282.265Z" stroke="#000000" stroke-width="1.797" fill="#40668C" transform="matrix(1 0 0 1.00167 254 212.099)"/></g><g clip-path="url(#clip13)"><path d="M693.241 334.243 757.519 334.243 757.519 285.116 693.241 285.116Z" stroke="#000000" stroke-width="1.797" fill="#40668C" transform="matrix(1 0 0 1.00167 254 212.099)"/></g><path d="M0 0 0 10.782" stroke="#000000" stroke-width="2.24625" stroke-linejoin="round" fill="none" transform="matrix(1 0 0 1.00167 394.455 546.9)"/><path d="M-0.0587079 14.4174 12.1371 14.4174 12.1371 12.7736 7.02022 12.7736 7.02022 0 5.06124 0 5.06124 12.7736-0.0587079 12.7736Z" transform="matrix(0.865664 -0.500626 -0.499792 -0.867108 369.268 607.215)"/><path d="M6.05309 9.56937C5.10141 9.56937 4.3485 9.19756 3.79438 8.45393 3.24026 7.7103 2.96321 6.69166 2.96321 5.39804 2.96321 4.1044 3.2382 3.08577 3.78819 2.34214 4.34026 1.5985 5.09522 1.22668 6.05309 1.22668 7.00065 1.22668 7.75046 1.59953 8.30253 2.34523 8.85665 3.09297 9.13371 4.11059 9.13371 5.39804 9.13371 6.6793 8.85665 7.69486 8.30253 8.44466 7.75046 9.19448 7.00065 9.56937 6.05309 9.56937ZM6.05309 11.0742C7.59804 11.0742 8.81133 10.5715 9.69297 9.56629 10.5767 8.56311 11.0185 7.17368 11.0185 5.39804 11.0185 3.62857 10.5767 2.23913 9.69297 1.22977 8.81133 0.222472 7.59804-0.281181 6.05309-0.281181 4.50196-0.281181 3.28661 0.222472 2.40703 1.22977 1.52949 2.23913 1.09073 3.62857 1.09073 5.39804 1.09073 7.17368 1.52949 8.56311 2.40703 9.56629 3.28661 10.5715 4.50196 11.0742 6.05309 11.0742Z" transform="matrix(0.865664 -0.500626 -0.499792 -0.867108 376.815 602.851)"/><path d="M6.36208-1.00421C5.86151-2.29166 5.37229-3.13108 4.89438-3.52247 4.41855-3.91592 3.78202-4.11264 2.98484-4.11264L1.56348-4.11264 1.56348-2.62639 2.60786-2.62639C3.09606-2.62639 3.47509-2.51002 3.74494-2.27724 4.01685-2.04654 4.31657-1.49962 4.6441-0.636517L4.96237 0.173034 0.590169 10.8146 2.47191 10.8146 5.85226 2.35759 9.23258 10.8146 11.1143 10.8146Z" transform="matrix(0.865664 -0.500626 -0.499792 -0.867108 387.288 596.794)"/><path d="M6.05309 9.56937C5.10141 9.56937 4.3485 9.19756 3.79438 8.45393 3.24026 7.7103 2.96321 6.69166 2.96321 5.39804 2.96321 4.1044 3.2382 3.08577 3.78819 2.34214 4.34026 1.5985 5.09522 1.22668 6.05309 1.22668 7.00065 1.22668 7.75046 1.59953 8.30253 2.34523 8.85665 3.09297 9.13371 4.11059 9.13371 5.39804 9.13371 6.6793 8.85665 7.69486 8.30253 8.44466 7.75046 9.19448 7.00065 9.56937 6.05309 9.56937ZM6.05309 11.0742C7.59804 11.0742 8.81133 10.5715 9.69297 9.56629 10.5767 8.56311 11.0185 7.17368 11.0185 5.39804 11.0185 3.62857 10.5767 2.23913 9.69297 1.22977 8.81133 0.222472 7.59804-0.281181 6.05309-0.281181 4.50196-0.281181 3.28661 0.222472 2.40703 1.22977 1.52949 2.23913 1.09073 3.62857 1.09073 5.39804 1.09073 7.17368 1.52949 8.56311 2.40703 9.56629 3.28661 10.5715 4.50196 11.0742 6.05309 11.0742Z" transform="matrix(0.865664 -0.500626 -0.499792 -0.867108 397.419 590.935)"/><path d="M3.62135 13.886 3.62135 10.8146 7.27977 10.8146 7.27977 9.43342 3.62135 9.43342 3.62135 3.56263C3.62135 2.68099 3.74186 2.11451 3.98286 1.8632 4.22388 1.61189 4.71518 1.48623 5.45675 1.48623L7.27977 1.48623 7.27977 0 5.45675 0C4.08482 0 3.1383 0.255431 2.61714 0.766292 2.09598 1.27921 1.83539 2.21133 1.83539 3.56263L1.83539 9.43342 0.531461 9.43342 0.531461 10.8146 1.83539 10.8146 1.83539 13.886Z" transform="matrix(0.865664 -0.500626 -0.499792 -0.867108 407.893 584.878)"/><path d="M6.7792 5.43512C5.34344 5.43512 4.3485 5.27134 3.79438 4.94382 3.24026 4.6163 2.96321 4.05599 2.96321 3.26292 2.96321 2.63258 3.17126 2.13201 3.58735 1.76124 4.00347 1.39251 4.56789 1.20815 5.28061 1.20815 6.26732 1.20815 7.05833 1.5573 7.65364 2.25561 8.24896 2.95393 8.54664 3.88193 8.54664 5.03961L8.54664 5.43512ZM10.3233 6.1705 10.3233 0 8.54664 0 8.54664 1.64073C8.14083 0.985675 7.63512 0.501592 7.0295 0.188483 6.42388-0.124625 5.68333-0.281181 4.80786-0.281181 3.70169-0.281181 2.82106 0.029869 2.16601 0.651967 1.51301 1.27406 1.18652 2.10626 1.18652 3.1486 1.18652 4.36395 1.59335 5.28061 2.40703 5.89859 3.22276 6.51657 4.43811 6.82555 6.05309 6.82555L8.54664 6.82555 8.54664 7.00167C8.54664 7.81948 8.27781 8.45187 7.74016 8.89887 7.20253 9.34587 6.44757 9.56937 5.47528 9.56937 4.8573 9.56937 4.25477 9.49522 3.6677 9.3469 3.08267 9.19859 2.52032 8.97612 1.98061 8.67949L1.98061 10.3233C2.6295 10.5746 3.25984 10.7621 3.87162 10.8857 4.48343 11.0113 5.07875 11.0742 5.65759 11.0742 7.22312 11.0742 8.39213 10.6683 9.16461 9.85675 9.93708 9.04719 10.3233 7.81845 10.3233 6.1705Z" transform="matrix(0.865664 -0.500626 -0.499792 -0.867108 414.605 580.997)"/><path d="M0 0 0 10.782" stroke="#000000" stroke-width="2.24625" stroke-linejoin="round" fill="none" transform="matrix(1 0 0 1.00167 458.733 546.9)"/><path d="M1.94045 14.4174 3.89017 14.4174 3.89017 8.50645 10.9784 8.50645 10.9784 14.4174 12.9281 14.4174 12.9281 0 10.9784 0 10.9784 6.86574 3.89017 6.86574 3.89017 0 1.94045 0Z" transform="matrix(0.865664 -0.500626 -0.499792 -0.867108 433.682 607.058)"/><path d="M6.05309 9.56937C5.10141 9.56937 4.3485 9.19756 3.79438 8.45393 3.24026 7.7103 2.96321 6.69166 2.96321 5.39804 2.96321 4.1044 3.2382 3.08577 3.78819 2.34214 4.34026 1.5985 5.09522 1.22668 6.05309 1.22668 7.00065 1.22668 7.75046 1.59953 8.30253 2.34523 8.85665 3.09297 9.13371 4.11059 9.13371 5.39804 9.13371 6.6793 8.85665 7.69486 8.30253 8.44466 7.75046 9.19448 7.00065 9.56937 6.05309 9.56937ZM6.05309 11.0742C7.59804 11.0742 8.81133 10.5715 9.69297 9.56629 10.5767 8.56311 11.0185 7.17368 11.0185 5.39804 11.0185 3.62857 10.5767 2.23913 9.69297 1.22977 8.81133 0.222472 7.59804-0.281181 6.05309-0.281181 4.50196-0.281181 3.28661 0.222472 2.40703 1.22977 1.52949 2.23913 1.09073 3.62857 1.09073 5.39804 1.09073 7.17368 1.52949 8.56311 2.40703 9.56629 3.28661 10.5715 4.50196 11.0742 6.05309 11.0742Z" transform="matrix(0.865664 -0.500626 -0.499792 -0.867108 446.555 599.614)"/><path d="M10.8548 6.52893 10.8548 0 9.07808 0 9.07808 6.47023C9.07808 7.494 8.87827 8.25926 8.47865 8.766 8.07903 9.2748 7.48061 9.52921 6.68343 9.52921 5.7235 9.52921 4.96648 9.22331 4.41236 8.61152 3.85824 8.00177 3.58118 7.16854 3.58118 6.11179L3.58118 0 1.79522 0 1.79522 10.8146 3.58118 10.8146 3.58118 9.13371C4.00758 9.78465 4.50815 10.2708 5.08286 10.5921 5.65964 10.9135 6.325 11.0742 7.07894 11.0742 8.32106 11.0742 9.26039 10.69 9.89691 9.92163 10.5355 9.15328 10.8548 8.02237 10.8548 6.52893Z" transform="matrix(0.865664 -0.500626 -0.499792 -0.867108 457.028 593.557)"/><path d="M8.9792 9.17387 8.9792 15.0261 10.7559 15.0261 10.7559 0 8.9792 0 8.9792 1.62219C8.60636 0.979493 8.13464 0.501592 7.56404 0.188483 6.9955-0.124625 6.31162-0.281181 5.51236-0.281181 4.20636-0.281181 3.14241 0.239981 2.32051 1.2823 1.50065 2.32668 1.09073 3.69859 1.09073 5.39804 1.09073 7.09747 1.50065 8.46835 2.32051 9.51068 3.14241 10.553 4.20636 11.0742 5.51236 11.0742 6.31162 11.0742 6.9955 10.9176 7.56404 10.6045 8.13464 10.2934 8.60636 9.81657 8.9792 9.17387ZM2.92613 5.39804C2.92613 4.09204 3.19493 3.06722 3.73258 2.32359 4.27023 1.57996 5.0087 1.20815 5.94803 1.20815 6.88735 1.20815 7.62687 1.57996 8.16658 2.32359 8.70834 3.06722 8.9792 4.09204 8.9792 5.39804 8.9792 6.70402 8.70834 7.72883 8.16658 8.47248 7.62687 9.21611 6.88735 9.58792 5.94803 9.58792 5.0087 9.58792 4.27023 9.21611 3.73258 8.47248 3.19493 7.72883 2.92613 6.70402 2.92613 5.39804Z" transform="matrix(0.865664 -0.500626 -0.499792 -0.867108 467.878 587.282)"/><path d="M6.7792 5.43512C5.34344 5.43512 4.3485 5.27134 3.79438 4.94382 3.24026 4.6163 2.96321 4.05599 2.96321 3.26292 2.96321 2.63258 3.17126 2.13201 3.58735 1.76124 4.00347 1.39251 4.56789 1.20815 5.28061 1.20815 6.26732 1.20815 7.05833 1.5573 7.65364 2.25561 8.24896 2.95393 8.54664 3.88193 8.54664 5.03961L8.54664 5.43512ZM10.3233 6.1705 10.3233 0 8.54664 0 8.54664 1.64073C8.14083 0.985675 7.63512 0.501592 7.0295 0.188483 6.42388-0.124625 5.68333-0.281181 4.80786-0.281181 3.70169-0.281181 2.82106 0.029869 2.16601 0.651967 1.51301 1.27406 1.18652 2.10626 1.18652 3.1486 1.18652 4.36395 1.59335 5.28061 2.40703 5.89859 3.22276 6.51657 4.43811 6.82555 6.05309 6.82555L8.54664 6.82555 8.54664 7.00167C8.54664 7.81948 8.27781 8.45187 7.74016 8.89887 7.20253 9.34587 6.44757 9.56937 5.47528 9.56937 4.8573 9.56937 4.25477 9.49522 3.6677 9.3469 3.08267 9.19859 2.52032 8.97612 1.98061 8.67949L1.98061 10.3233C2.6295 10.5746 3.25984 10.7621 3.87162 10.8857 4.48343 11.0113 5.07875 11.0742 5.65759 11.0742 7.22312 11.0742 8.39213 10.6683 9.16461 9.85675 9.93708 9.04719 10.3233 7.81845 10.3233 6.1705Z" transform="matrix(0.865664 -0.500626 -0.499792 -0.867108 478.744 580.998)"/><path d="M0 0 0 10.782" stroke="#000000" stroke-width="2.24625" stroke-linejoin="round" fill="none" transform="matrix(1 0 0 1.00167 523.01 546.9)"/><path d="M1.94045 14.4174 10.2244 14.4174 10.2244 12.7736 3.89017 12.7736 3.89017 8.525 9.60645 8.525 9.60645 6.88427 3.89017 6.88427 3.89017 0 1.94045 0Z" transform="matrix(0.865664 -0.500626 -0.499792 -0.867108 507.084 596.503)"/><path d="M6.05309 9.56937C5.10141 9.56937 4.3485 9.19756 3.79438 8.45393 3.24026 7.7103 2.96321 6.69166 2.96321 5.39804 2.96321 4.1044 3.2382 3.08577 3.78819 2.34214 4.34026 1.5985 5.09522 1.22668 6.05309 1.22668 7.00065 1.22668 7.75046 1.59953 8.30253 2.34523 8.85665 3.09297 9.13371 4.11059 9.13371 5.39804 9.13371 6.6793 8.85665 7.69486 8.30253 8.44466 7.75046 9.19448 7.00065 9.56937 6.05309 9.56937ZM6.05309 11.0742C7.59804 11.0742 8.81133 10.5715 9.69297 9.56629 10.5767 8.56311 11.0185 7.17368 11.0185 5.39804 11.0185 3.62857 10.5767 2.23913 9.69297 1.22977 8.81133 0.222472 7.59804-0.281181 6.05309-0.281181 4.50196-0.281181 3.28661 0.222472 2.40703 1.22977 1.52949 2.23913 1.09073 3.62857 1.09073 5.39804 1.09073 7.17368 1.52949 8.56311 2.40703 9.56629 3.28661 10.5715 4.50196 11.0742 6.05309 11.0742Z" transform="matrix(0.865664 -0.500626 -0.499792 -0.867108 516.31 591.167)"/><path d="M8.1295 9.15534C7.92969 9.27069 7.71236 9.35515 7.47753 9.4087 7.24269 9.46433 6.98417 9.49213 6.70196 9.49213 5.69672 9.49213 4.92527 9.16564 4.38764 8.51264 3.85001 7.85964 3.58118 6.92135 3.58118 5.69775L3.58118 0 1.79522 0 1.79522 10.8146 3.58118 10.8146 3.58118 9.13371C3.95608 9.79082 4.44222 10.278 5.03961 10.5952 5.63904 10.9145 6.36722 11.0742 7.22415 11.0742 7.34568 11.0742 7.48061 11.0659 7.62893 11.0494 7.77724 11.035 7.941 11.0113 8.12022 10.9784Z" transform="matrix(0.865664 -0.500626 -0.499792 -0.867108 526.784 585.111)"/><path d="M8.9792 9.17387 8.9792 15.0261 10.7559 15.0261 10.7559 0 8.9792 0 8.9792 1.62219C8.60636 0.979493 8.13464 0.501592 7.56404 0.188483 6.9955-0.124625 6.31162-0.281181 5.51236-0.281181 4.20636-0.281181 3.14241 0.239981 2.32051 1.2823 1.50065 2.32668 1.09073 3.69859 1.09073 5.39804 1.09073 7.09747 1.50065 8.46835 2.32051 9.51068 3.14241 10.553 4.20636 11.0742 5.51236 11.0742 6.31162 11.0742 6.9955 10.9176 7.56404 10.6045 8.13464 10.2934 8.60636 9.81657 8.9792 9.17387ZM2.92613 5.39804C2.92613 4.09204 3.19493 3.06722 3.73258 2.32359 4.27023 1.57996 5.0087 1.20815 5.94803 1.20815 6.88735 1.20815 7.62687 1.57996 8.16658 2.32359 8.70834 3.06722 8.9792 4.09204 8.9792 5.39804 8.9792 6.70402 8.70834 7.72883 8.16658 8.47248 7.62687 9.21611 6.88735 9.58792 5.94803 9.58792 5.0087 9.58792 4.27023 9.21611 3.73258 8.47248 3.19493 7.72883 2.92613 6.70402 2.92613 5.39804Z" transform="matrix(0.865664 -0.500626 -0.499792 -0.867108 533.522 581.214)"/><path d="M0 0 0 10.782" stroke="#000000" stroke-width="2.24625" stroke-linejoin="round" fill="none" transform="matrix(1 0 0 1.00167 587.288 546.9)"/><path d="M12.7365 13.305 12.7365 11.2503C12.0794 11.8621 11.379 12.3184 10.6354 12.6191 9.89175 12.9219 9.10177 13.0733 8.26545 13.0733 6.6175 13.0733 5.3558 12.5697 4.48033 11.5624 3.60487 10.5551 3.16713 9.09868 3.16713 7.19326 3.16713 5.294 3.60487 3.84073 4.48033 2.83342 5.3558 1.82612 6.6175 1.32247 8.26545 1.32247 9.10177 1.32247 9.89175 1.47388 10.6354 1.77669 11.379 2.07949 12.0794 2.53679 12.7365 3.1486L12.7365 1.10927C12.0547 0.645785 11.3316 0.297659 10.5674 0.0648876 9.80523-0.165824 8.99981-0.281181 8.15113-0.281181 5.9676-0.281181 4.24757 0.386235 2.99101 1.72107 1.73652 3.05795 1.10927 4.88202 1.10927 7.19326 1.10927 9.51068 1.73652 11.3368 2.99101 12.6716 4.24757 14.0085 5.9676 14.677 8.15113 14.677 9.01217 14.677 9.82378 14.5626 10.5859 14.334 11.3502 14.1053 12.067 13.7624 12.7365 13.305Z" transform="matrix(0.865664 -0.500626 -0.499792 -0.867108 548.717 622.695)"/><path d="M10.8548 6.52893 10.8548 0 9.07808 0 9.07808 6.47023C9.07808 7.494 8.87827 8.25926 8.47865 8.766 8.07903 9.2748 7.48061 9.52921 6.68343 9.52921 5.7235 9.52921 4.96648 9.22331 4.41236 8.61152 3.85824 8.00177 3.58118 7.16854 3.58118 6.11179L3.58118 0 1.79522 0 1.79522 15.0261 3.58118 15.0261 3.58118 9.13371C4.00758 9.78465 4.50815 10.2708 5.08286 10.5921 5.65964 10.9135 6.325 11.0742 7.07894 11.0742 8.32106 11.0742 9.26039 10.69 9.89691 9.92163 10.5355 9.15328 10.8548 8.02237 10.8548 6.52893Z" transform="matrix(0.865664 -0.500626 -0.499792 -0.867108 560.67 615.783)"/><path d="M11.1143 5.85226 11.1143 4.98398 2.94466 4.98398C3.02295 3.76039 3.39166 2.82828 4.05085 2.18764 4.71002 1.547 5.62874 1.22668 6.80703 1.22668 7.48886 1.22668 8.15008 1.31011 8.79072 1.47697 9.43136 1.64382 10.0679 1.89513 10.7003 2.23089L10.7003 0.55C10.0617 0.28015 9.40767 0.0741573 8.7382-0.0679775 8.06873-0.210112 7.38998-0.281181 6.70196-0.281181 4.97576-0.281181 3.60899 0.220411 2.60168 1.2236 1.59438 2.22883 1.09073 3.58838 1.09073 5.30225 1.09073 7.07172 1.56863 8.47556 2.52443 9.51377 3.48025 10.554 4.76976 11.0742 6.39297 11.0742 7.84728 11.0742 8.99775 10.6055 9.84437 9.66825 10.691 8.73306 11.1143 7.46105 11.1143 5.85226ZM9.33765 6.37444C9.32527 7.34466 9.05336 8.11919 8.52192 8.69804 7.99044 9.27894 7.28699 9.56937 6.41152 9.56937 5.4207 9.56937 4.62761 9.28924 4.0323 8.72892 3.43698 8.16863 3.094 7.37968 3.00337 6.36208Z" transform="matrix(0.865664 -0.500626 -0.499792 -0.867108 571.52 609.508)"/><path d="M0.590169 10.8146 2.47191 10.8146 5.85226 1.73961 9.23258 10.8146 11.1143 10.8146 7.0573 0 4.6441 0Z" transform="matrix(0.865664 -0.500626 -0.499792 -0.867108 582.052 603.417)"/><path d="M8.1295 9.15534C7.92969 9.27069 7.71236 9.35515 7.47753 9.4087 7.24269 9.46433 6.98417 9.49213 6.70196 9.49213 5.69672 9.49213 4.92527 9.16564 4.38764 8.51264 3.85001 7.85964 3.58118 6.92135 3.58118 5.69775L3.58118 0 1.79522 0 1.79522 10.8146 3.58118 10.8146 3.58118 9.13371C3.95608 9.79082 4.44222 10.278 5.03961 10.5952 5.63904 10.9145 6.36722 11.0742 7.22415 11.0742 7.34568 11.0742 7.48061 11.0659 7.62893 11.0494 7.77724 11.035 7.941 11.0113 8.12022 10.9784Z" transform="matrix(0.865664 -0.500626 -0.499792 -0.867108 592.183 597.559)"/><path d="M6.05309 9.56937C5.10141 9.56937 4.3485 9.19756 3.79438 8.45393 3.24026 7.7103 2.96321 6.69166 2.96321 5.39804 2.96321 4.1044 3.2382 3.08577 3.78819 2.34214 4.34026 1.5985 5.09522 1.22668 6.05309 1.22668 7.00065 1.22668 7.75046 1.59953 8.30253 2.34523 8.85665 3.09297 9.13371 4.11059 9.13371 5.39804 9.13371 6.6793 8.85665 7.69486 8.30253 8.44466 7.75046 9.19448 7.00065 9.56937 6.05309 9.56937ZM6.05309 11.0742C7.59804 11.0742 8.81133 10.5715 9.69297 9.56629 10.5767 8.56311 11.0185 7.17368 11.0185 5.39804 11.0185 3.62857 10.5767 2.23913 9.69297 1.22977 8.81133 0.222472 7.59804-0.281181 6.05309-0.281181 4.50196-0.281181 3.28661 0.222472 2.40703 1.22977 1.52949 2.23913 1.09073 3.62857 1.09073 5.39804 1.09073 7.17368 1.52949 8.56311 2.40703 9.56629 3.28661 10.5715 4.50196 11.0742 6.05309 11.0742Z" transform="matrix(0.865664 -0.500626 -0.499792 -0.867108 598.836 593.711)"/><path d="M1.8632 15.0261 3.63988 15.0261 3.63988 0 1.8632 0Z" transform="matrix(0.865664 -0.500626 -0.499792 -0.867108 609.309 587.654)"/><path d="M11.1143 5.85226 11.1143 4.98398 2.94466 4.98398C3.02295 3.76039 3.39166 2.82828 4.05085 2.18764 4.71002 1.547 5.62874 1.22668 6.80703 1.22668 7.48886 1.22668 8.15008 1.31011 8.79072 1.47697 9.43136 1.64382 10.0679 1.89513 10.7003 2.23089L10.7003 0.55C10.0617 0.28015 9.40767 0.0741573 8.7382-0.0679775 8.06873-0.210112 7.38998-0.281181 6.70196-0.281181 4.97576-0.281181 3.60899 0.220411 2.60168 1.2236 1.59438 2.22883 1.09073 3.58838 1.09073 5.30225 1.09073 7.07172 1.56863 8.47556 2.52443 9.51377 3.48025 10.554 4.76976 11.0742 6.39297 11.0742 7.84728 11.0742 8.99775 10.6055 9.84437 9.66825 10.691 8.73306 11.1143 7.46105 11.1143 5.85226ZM9.33765 6.37444C9.32527 7.34466 9.05336 8.11919 8.52192 8.69804 7.99044 9.27894 7.28699 9.56937 6.41152 9.56937 5.4207 9.56937 4.62761 9.28924 4.0323 8.72892 3.43698 8.16863 3.094 7.37968 3.00337 6.36208Z" transform="matrix(0.865664 -0.500626 -0.499792 -0.867108 614.065 584.904)"/><path d="M3.62135 13.886 3.62135 10.8146 7.27977 10.8146 7.27977 9.43342 3.62135 9.43342 3.62135 3.56263C3.62135 2.68099 3.74186 2.11451 3.98286 1.8632 4.22388 1.61189 4.71518 1.48623 5.45675 1.48623L7.27977 1.48623 7.27977 0 5.45675 0C4.08482 0 3.1383 0.255431 2.61714 0.766292 2.09598 1.27921 1.83539 2.21133 1.83539 3.56263L1.83539 9.43342 0.531461 9.43342 0.531461 10.8146 1.83539 10.8146 1.83539 13.886Z" transform="matrix(0.865664 -0.500626 -0.499792 -0.867108 624.597 578.813)"/><path d="M0 0 0 10.782" stroke="#000000" stroke-width="2.24625" stroke-linejoin="round" fill="none" transform="matrix(1 0 0 1.00167 651.564 546.9)"/><path d="M1.94045 14.4174 3.89017 14.4174 3.89017 1.00421C3.89017-0.734363 3.56058-1.99608 2.90141-2.7809 2.24222-3.56572 1.18137-3.95814-0.281181-3.95814L-1.02275-3.95814-1.02275-2.31743-0.414045-2.31743C0.447004-2.31743 1.05468-2.07538 1.40899-1.59129 1.7633-1.10927 1.94045-0.244102 1.94045 1.00421Z" transform="matrix(0.865664 -0.500626 -0.499792 -0.867108 635.8 596.318)"/><path d="M11.1143 5.85226 11.1143 4.98398 2.94466 4.98398C3.02295 3.76039 3.39166 2.82828 4.05085 2.18764 4.71002 1.547 5.62874 1.22668 6.80703 1.22668 7.48886 1.22668 8.15008 1.31011 8.79072 1.47697 9.43136 1.64382 10.0679 1.89513 10.7003 2.23089L10.7003 0.55C10.0617 0.28015 9.40767 0.0741573 8.7382-0.0679775 8.06873-0.210112 7.38998-0.281181 6.70196-0.281181 4.97576-0.281181 3.60899 0.220411 2.60168 1.2236 1.59438 2.22883 1.09073 3.58838 1.09073 5.30225 1.09073 7.07172 1.56863 8.47556 2.52443 9.51377 3.48025 10.554 4.76976 11.0742 6.39297 11.0742 7.84728 11.0742 8.99775 10.6055 9.84437 9.66825 10.691 8.73306 11.1143 7.46105 11.1143 5.85226ZM9.33765 6.37444C9.32527 7.34466 9.05336 8.11919 8.52192 8.69804 7.99044 9.27894 7.28699 9.56937 6.41152 9.56937 5.4207 9.56937 4.62761 9.28924 4.0323 8.72892 3.43698 8.16863 3.094 7.37968 3.00337 6.36208Z" transform="matrix(0.865664 -0.500626 -0.499792 -0.867108 640.849 593.399)"/><path d="M11.1143 5.85226 11.1143 4.98398 2.94466 4.98398C3.02295 3.76039 3.39166 2.82828 4.05085 2.18764 4.71002 1.547 5.62874 1.22668 6.80703 1.22668 7.48886 1.22668 8.15008 1.31011 8.79072 1.47697 9.43136 1.64382 10.0679 1.89513 10.7003 2.23089L10.7003 0.55C10.0617 0.28015 9.40767 0.0741573 8.7382-0.0679775 8.06873-0.210112 7.38998-0.281181 6.70196-0.281181 4.97576-0.281181 3.60899 0.220411 2.60168 1.2236 1.59438 2.22883 1.09073 3.58838 1.09073 5.30225 1.09073 7.07172 1.56863 8.47556 2.52443 9.51377 3.48025 10.554 4.76976 11.0742 6.39297 11.0742 7.84728 11.0742 8.99775 10.6055 9.84437 9.66825 10.691 8.73306 11.1143 7.46105 11.1143 5.85226ZM9.33765 6.37444C9.32527 7.34466 9.05336 8.11919 8.52192 8.69804 7.99044 9.27894 7.28699 9.56937 6.41152 9.56937 5.4207 9.56937 4.62761 9.28924 4.0323 8.72892 3.43698 8.16863 3.094 7.37968 3.00337 6.36208Z" transform="matrix(0.865664 -0.500626 -0.499792 -0.867108 651.381 587.308)"/><path d="M3.58118 1.62219 3.58118-4.11264 1.79522-4.11264 1.79522 10.8146 3.58118 10.8146 3.58118 9.17387C3.95608 9.81657 4.4278 10.2934 4.99634 10.6045 5.56694 10.9176 6.24776 11.0742 7.03877 11.0742 8.353 11.0742 9.42003 10.553 10.2399 9.51068 11.0618 8.46835 11.4727 7.09747 11.4727 5.39804 11.4727 3.69859 11.0618 2.32668 10.2399 1.2823 9.42003 0.239981 8.353-0.281181 7.03877-0.281181 6.24776-0.281181 5.56694-0.124625 4.99634 0.188483 4.4278 0.501592 3.95608 0.979493 3.58118 1.62219ZM9.62809 5.39804C9.62809 6.70402 9.35926 7.72883 8.82163 8.47248 8.28398 9.21611 7.54549 9.58792 6.60617 9.58792 5.66479 9.58792 4.92527 9.21611 4.38764 8.47248 3.85001 7.72883 3.58118 6.70402 3.58118 5.39804 3.58118 4.09204 3.85001 3.06722 4.38764 2.32359 4.92527 1.57996 5.66479 1.20815 6.60617 1.20815 7.54549 1.20815 8.28398 1.57996 8.82163 2.32359 9.35926 3.06722 9.62809 4.09204 9.62809 5.39804Z" transform="matrix(0.865664 -0.500626 -0.499792 -0.867108 661.913 581.217)"/><path d="M0 0 0 10.782" stroke="#000000" stroke-width="2.24625" stroke-linejoin="round" fill="none" transform="matrix(1 0 0 1.00167 715.842 546.9)"/><path d="M1.94045 14.4174 4.56686 14.4174 10.9598 2.35759 10.9598 14.4174 12.8508 14.4174 12.8508 0 10.2244 0 3.83454 12.0598 3.83454 0 1.94045 0Z" transform="matrix(0.865664 -0.500626 -0.499792 -0.867108 690.201 607.741)"/><path d="M1.8632 10.8146 3.63988 10.8146 3.63988 0 1.8632 0ZM1.8632 15.0261 3.63988 15.0261 3.63988 12.7736 1.8632 12.7736Z" transform="matrix(0.865664 -0.500626 -0.499792 -0.867108 703.007 600.335)"/><path d="M8.75673 10.4963 8.75673 8.81544C8.25618 9.07294 7.73502 9.26555 7.19326 9.39326 6.65355 9.52302 6.09326 9.58792 5.51236 9.58792 4.63072 9.58792 3.96947 9.453 3.52866 9.18314 3.08783 8.91329 2.86741 8.50748 2.86741 7.96572 2.86741 7.55374 3.025 7.23034 3.34016 6.9955 3.65534 6.76067 4.28979 6.53717 5.24353 6.325L5.85226 6.18905C7.11293 5.9192 8.00899 5.53811 8.54045 5.04578 9.07191 4.55345 9.33765 3.86648 9.33765 2.98484 9.33765 1.97958 8.94007 1.18343 8.14494 0.596347 7.34982 0.0113296 6.25702-0.281181 4.86658-0.281181 4.28773-0.281181 3.68417-0.224532 3.05589-0.111236 2.42761 0.00205993 1.76638 0.170974 1.07219 0.395506L1.07219 2.23089C1.72931 1.88895 2.37612 1.63249 3.01264 1.46152 3.64915 1.2926 4.28052 1.20815 4.90674 1.20815 5.74308 1.20815 6.38577 1.35131 6.83483 1.63764 7.28596 1.92397 7.51152 2.32771 7.51152 2.84887 7.51152 3.33091 7.34879 3.70065 7.02331 3.95814 6.6999 4.21563 5.98716 4.46385 4.88511 4.7028L4.26713 4.84803C3.16713 5.07875 2.372 5.43409 1.88174 5.91403 1.39354 6.394 1.14944 7.05216 1.14944 7.88848 1.14944 8.90609 1.50993 9.69091 2.23089 10.243 2.95188 10.7971 3.97566 11.0742 5.30225 11.0742 5.9573 11.0742 6.57425 11.0257 7.15309 10.9289 7.73399 10.8342 8.26854 10.69 8.75673 10.4963Z" transform="matrix(0.865664 -0.500626 -0.499792 -0.867108 707.763 597.585)"/><path d="M8.75673 10.4963 8.75673 8.81544C8.25618 9.07294 7.73502 9.26555 7.19326 9.39326 6.65355 9.52302 6.09326 9.58792 5.51236 9.58792 4.63072 9.58792 3.96947 9.453 3.52866 9.18314 3.08783 8.91329 2.86741 8.50748 2.86741 7.96572 2.86741 7.55374 3.025 7.23034 3.34016 6.9955 3.65534 6.76067 4.28979 6.53717 5.24353 6.325L5.85226 6.18905C7.11293 5.9192 8.00899 5.53811 8.54045 5.04578 9.07191 4.55345 9.33765 3.86648 9.33765 2.98484 9.33765 1.97958 8.94007 1.18343 8.14494 0.596347 7.34982 0.0113296 6.25702-0.281181 4.86658-0.281181 4.28773-0.281181 3.68417-0.224532 3.05589-0.111236 2.42761 0.00205993 1.76638 0.170974 1.07219 0.395506L1.07219 2.23089C1.72931 1.88895 2.37612 1.63249 3.01264 1.46152 3.64915 1.2926 4.28052 1.20815 4.90674 1.20815 5.74308 1.20815 6.38577 1.35131 6.83483 1.63764 7.28596 1.92397 7.51152 2.32771 7.51152 2.84887 7.51152 3.33091 7.34879 3.70065 7.02331 3.95814 6.6999 4.21563 5.98716 4.46385 4.88511 4.7028L4.26713 4.84803C3.16713 5.07875 2.372 5.43409 1.88174 5.91403 1.39354 6.394 1.14944 7.05216 1.14944 7.88848 1.14944 8.90609 1.50993 9.69091 2.23089 10.243 2.95188 10.7971 3.97566 11.0742 5.30225 11.0742 5.9573 11.0742 6.57425 11.0257 7.15309 10.9289 7.73399 10.8342 8.26854 10.69 8.75673 10.4963Z" transform="matrix(0.865664 -0.500626 -0.499792 -0.867108 716.682 592.427)"/><path d="M6.7792 5.43512C5.34344 5.43512 4.3485 5.27134 3.79438 4.94382 3.24026 4.6163 2.96321 4.05599 2.96321 3.26292 2.96321 2.63258 3.17126 2.13201 3.58735 1.76124 4.00347 1.39251 4.56789 1.20815 5.28061 1.20815 6.26732 1.20815 7.05833 1.5573 7.65364 2.25561 8.24896 2.95393 8.54664 3.88193 8.54664 5.03961L8.54664 5.43512ZM10.3233 6.1705 10.3233 0 8.54664 0 8.54664 1.64073C8.14083 0.985675 7.63512 0.501592 7.0295 0.188483 6.42388-0.124625 5.68333-0.281181 4.80786-0.281181 3.70169-0.281181 2.82106 0.029869 2.16601 0.651967 1.51301 1.27406 1.18652 2.10626 1.18652 3.1486 1.18652 4.36395 1.59335 5.28061 2.40703 5.89859 3.22276 6.51657 4.43811 6.82555 6.05309 6.82555L8.54664 6.82555 8.54664 7.00167C8.54664 7.81948 8.27781 8.45187 7.74016 8.89887 7.20253 9.34587 6.44757 9.56937 5.47528 9.56937 4.8573 9.56937 4.25477 9.49522 3.6677 9.3469 3.08267 9.19859 2.52032 8.97612 1.98061 8.67949L1.98061 10.3233C2.6295 10.5746 3.25984 10.7621 3.87162 10.8857 4.48343 11.0113 5.07875 11.0742 5.65759 11.0742 7.22312 11.0742 8.39213 10.6683 9.16461 9.85675 9.93708 9.04719 10.3233 7.81845 10.3233 6.1705Z" transform="matrix(0.865664 -0.500626 -0.499792 -0.867108 725.6 587.269)"/><path d="M10.8548 6.52893 10.8548 0 9.07808 0 9.07808 6.47023C9.07808 7.494 8.87827 8.25926 8.47865 8.766 8.07903 9.2748 7.48061 9.52921 6.68343 9.52921 5.7235 9.52921 4.96648 9.22331 4.41236 8.61152 3.85824 8.00177 3.58118 7.16854 3.58118 6.11179L3.58118 0 1.79522 0 1.79522 10.8146 3.58118 10.8146 3.58118 9.13371C4.00758 9.78465 4.50815 10.2708 5.08286 10.5921 5.65964 10.9135 6.325 11.0742 7.07894 11.0742 8.32106 11.0742 9.26039 10.69 9.89691 9.92163 10.5355 9.15328 10.8548 8.02237 10.8548 6.52893Z" transform="matrix(0.865664 -0.500626 -0.499792 -0.867108 736.091 581.203)"/><path d="M0 0 0 10.782" stroke="#000000" stroke-width="2.24625" stroke-linejoin="round" fill="none" transform="matrix(1 0 0 1.00167 780.12 546.9)"/><path d="M3.89017 6.88427 3.89017 1.60365 7.02022 1.60365C8.06873 1.60365 8.84532 1.82097 9.34999 2.25561 9.85675 2.69027 10.1101 3.35458 10.1101 4.2486 10.1101 5.15085 9.85675 5.81516 9.34999 6.24157 8.84532 6.67004 8.06873 6.88427 7.02022 6.88427ZM3.89017 12.8138 3.89017 8.46937 6.7792 8.46937C7.73091 8.46937 8.43951 8.64757 8.90504 9.00392 9.37265 9.36237 9.60645 9.90824 9.60645 10.6416 9.60645 11.3687 9.37265 11.9125 8.90504 12.273 8.43951 12.6335 7.73091 12.8138 6.7792 12.8138ZM1.94045 14.4174 6.92443 14.4174C8.41171 14.4174 9.55701 14.1084 10.3604 13.4905 11.1658 12.8725 11.5685 11.9939 11.5685 10.8548 11.5685 9.97107 11.3625 9.26863 10.9506 8.74747 10.5386 8.22632 9.93296 7.90186 9.13371 7.77416 10.0936 7.56816 10.8393 7.13765 11.3708 6.48257 11.9022 5.82959 12.168 5.01386 12.168 4.03538 12.168 2.74793 11.7302 1.753 10.8548 1.05056 9.9793 0.350187 8.73306 0 7.11601 0L1.94045 0Z" transform="matrix(0.865664 -0.500626 -0.499792 -0.867108 761.126 600.051)"/><path d="M1.94045 14.4174 4.84803 14.4174 8.525 4.60703 12.2236 14.4174 15.1312 14.4174 15.1312 0 13.2278 0 13.2278 12.6593 9.51068 2.77162 7.55168 2.77162 3.83454 12.6593 3.83454 0 1.94045 0Z" transform="matrix(0.865664 -0.500626 -0.499792 -0.867108 772.871 593.26)"/><path d="M0.658145 14.4174 2.62639 14.4174 5.65759 2.23089 8.67949 14.4174 10.8733 14.4174 13.9045 2.23089 16.9264 14.4174 18.907 14.4174 15.2857 0 12.8323 0 9.79185 12.514 6.72051 0 4.26713 0Z" transform="matrix(0.865664 -0.500626 -0.499792 -0.867108 787.641 584.718)"/><path d="M0 0 0 10.782" stroke="#000000" stroke-width="2.24625" stroke-linejoin="round" fill="none" transform="matrix(1 0 0 1.00167 844.397 546.9)"/><path d="M6.76067 12.4955 4.11264 5.32078 9.41489 5.32078ZM5.65759 14.4174 7.86995 14.4174 13.3638 0 11.3368 0 10.0236 3.69859 3.52556 3.69859 2.21236 0 0.154494 0Z" transform="matrix(0.865664 -0.500626 -0.499792 -0.867108 828.033 597.011)"/><path d="M1.6809 4.26713 1.6809 10.8146 3.45759 10.8146 3.45759 4.33512C3.45759 3.31133 3.65637 2.54298 4.05393 2.03005 4.45355 1.51919 5.053 1.26376 5.85226 1.26376 6.81011 1.26376 7.56713 1.56966 8.12331 2.18145 8.68154 2.79326 8.96067 3.62754 8.96067 4.68427L8.96067 10.8146 10.7374 10.8146 10.7374 0 8.96067 0 8.96067 1.66236C8.53014 1.00524 8.02959 0.51704 7.459 0.197753 6.89046-0.121535 6.22921-0.281181 5.47528-0.281181 4.23314-0.281181 3.2897 0.105056 2.64494 0.877528 2.00225 1.65 1.6809 2.77987 1.6809 4.26713Z" transform="matrix(0.865664 -0.500626 -0.499792 -0.867108 839.743 590.238)"/><path d="M8.9792 9.17387 8.9792 15.0261 10.7559 15.0261 10.7559 0 8.9792 0 8.9792 1.62219C8.60636 0.979493 8.13464 0.501592 7.56404 0.188483 6.9955-0.124625 6.31162-0.281181 5.51236-0.281181 4.20636-0.281181 3.14241 0.239981 2.32051 1.2823 1.50065 2.32668 1.09073 3.69859 1.09073 5.39804 1.09073 7.09747 1.50065 8.46835 2.32051 9.51068 3.14241 10.553 4.20636 11.0742 5.51236 11.0742 6.31162 11.0742 6.9955 10.9176 7.56404 10.6045 8.13464 10.2934 8.60636 9.81657 8.9792 9.17387ZM2.92613 5.39804C2.92613 4.09204 3.19493 3.06722 3.73258 2.32359 4.27023 1.57996 5.0087 1.20815 5.94803 1.20815 6.88735 1.20815 7.62687 1.57996 8.16658 2.32359 8.70834 3.06722 8.9792 4.09204 8.9792 5.39804 8.9792 6.70402 8.70834 7.72883 8.16658 8.47248 7.62687 9.21611 6.88735 9.58792 5.94803 9.58792 5.0087 9.58792 4.27023 9.21611 3.73258 8.47248 3.19493 7.72883 2.92613 6.70402 2.92613 5.39804Z" transform="matrix(0.865664 -0.500626 -0.499792 -0.867108 850.593 583.964)"/><path d="M1.8632 10.8146 3.63988 10.8146 3.63988 0 1.8632 0ZM1.8632 15.0261 3.63988 15.0261 3.63988 12.7736 1.8632 12.7736Z" transform="matrix(0.865664 -0.500626 -0.499792 -0.867108 861.459 577.68)"/><path d="M0 0 0 10.782" stroke="#000000" stroke-width="2.24625" stroke-linejoin="round" fill="none" transform="matrix(1 0 0 1.00167 908.675 546.9)"/><path d="M1.94045 14.4174 4.84803 14.4174 8.525 4.60703 12.2236 14.4174 15.1312 14.4174 15.1312 0 13.2278 0 13.2278 12.6593 9.51068 2.77162 7.55168 2.77162 3.83454 12.6593 3.83454 0 1.94045 0Z" transform="matrix(0.865664 -0.500626 -0.499792 -0.867108 883.599 607.086)"/><path d="M6.7792 5.43512C5.34344 5.43512 4.3485 5.27134 3.79438 4.94382 3.24026 4.6163 2.96321 4.05599 2.96321 3.26292 2.96321 2.63258 3.17126 2.13201 3.58735 1.76124 4.00347 1.39251 4.56789 1.20815 5.28061 1.20815 6.26732 1.20815 7.05833 1.5573 7.65364 2.25561 8.24896 2.95393 8.54664 3.88193 8.54664 5.03961L8.54664 5.43512ZM10.3233 6.1705 10.3233 0 8.54664 0 8.54664 1.64073C8.14083 0.985675 7.63512 0.501592 7.0295 0.188483 6.42388-0.124625 5.68333-0.281181 4.80786-0.281181 3.70169-0.281181 2.82106 0.029869 2.16601 0.651967 1.51301 1.27406 1.18652 2.10626 1.18652 3.1486 1.18652 4.36395 1.59335 5.28061 2.40703 5.89859 3.22276 6.51657 4.43811 6.82555 6.05309 6.82555L8.54664 6.82555 8.54664 7.00167C8.54664 7.81948 8.27781 8.45187 7.74016 8.89887 7.20253 9.34587 6.44757 9.56937 5.47528 9.56937 4.8573 9.56937 4.25477 9.49522 3.6677 9.3469 3.08267 9.19859 2.52032 8.97612 1.98061 8.67949L1.98061 10.3233C2.6295 10.5746 3.25984 10.7621 3.87162 10.8857 4.48343 11.0113 5.07875 11.0742 5.65759 11.0742 7.22312 11.0742 8.39213 10.6683 9.16461 9.85675 9.93708 9.04719 10.3233 7.81845 10.3233 6.1705Z" transform="matrix(0.865664 -0.500626 -0.499792 -0.867108 898.369 598.544)"/><path d="M1.09073 10.8146 9.52921 10.8146 9.52921 9.19242 2.84887 1.41826 9.52921 1.41826 9.52921 0 0.84972 0 0.84972 1.62219 7.53315 9.39634 1.09073 9.39634Z" transform="matrix(0.865664 -0.500626 -0.499792 -0.867108 908.86 592.478)"/><path d="M8.9792 9.17387 8.9792 15.0261 10.7559 15.0261 10.7559 0 8.9792 0 8.9792 1.62219C8.60636 0.979493 8.13464 0.501592 7.56404 0.188483 6.9955-0.124625 6.31162-0.281181 5.51236-0.281181 4.20636-0.281181 3.14241 0.239981 2.32051 1.2823 1.50065 2.32668 1.09073 3.69859 1.09073 5.39804 1.09073 7.09747 1.50065 8.46835 2.32051 9.51068 3.14241 10.553 4.20636 11.0742 5.51236 11.0742 6.31162 11.0742 6.9955 10.9176 7.56404 10.6045 8.13464 10.2934 8.60636 9.81657 8.9792 9.17387ZM2.92613 5.39804C2.92613 4.09204 3.19493 3.06722 3.73258 2.32359 4.27023 1.57996 5.0087 1.20815 5.94803 1.20815 6.88735 1.20815 7.62687 1.57996 8.16658 2.32359 8.70834 3.06722 8.9792 4.09204 8.9792 5.39804 8.9792 6.70402 8.70834 7.72883 8.16658 8.47248 7.62687 9.21611 6.88735 9.58792 5.94803 9.58792 5.0087 9.58792 4.27023 9.21611 3.73258 8.47248 3.19493 7.72883 2.92613 6.70402 2.92613 5.39804Z" transform="matrix(0.865664 -0.500626 -0.499792 -0.867108 917.845 587.281)"/><path d="M6.7792 5.43512C5.34344 5.43512 4.3485 5.27134 3.79438 4.94382 3.24026 4.6163 2.96321 4.05599 2.96321 3.26292 2.96321 2.63258 3.17126 2.13201 3.58735 1.76124 4.00347 1.39251 4.56789 1.20815 5.28061 1.20815 6.26732 1.20815 7.05833 1.5573 7.65364 2.25561 8.24896 2.95393 8.54664 3.88193 8.54664 5.03961L8.54664 5.43512ZM10.3233 6.1705 10.3233 0 8.54664 0 8.54664 1.64073C8.14083 0.985675 7.63512 0.501592 7.0295 0.188483 6.42388-0.124625 5.68333-0.281181 4.80786-0.281181 3.70169-0.281181 2.82106 0.029869 2.16601 0.651967 1.51301 1.27406 1.18652 2.10626 1.18652 3.1486 1.18652 4.36395 1.59335 5.28061 2.40703 5.89859 3.22276 6.51657 4.43811 6.82555 6.05309 6.82555L8.54664 6.82555 8.54664 7.00167C8.54664 7.81948 8.27781 8.45187 7.74016 8.89887 7.20253 9.34587 6.44757 9.56937 5.47528 9.56937 4.8573 9.56937 4.25477 9.49522 3.6677 9.3469 3.08267 9.19859 2.52032 8.97612 1.98061 8.67949L1.98061 10.3233C2.6295 10.5746 3.25984 10.7621 3.87162 10.8857 4.48343 11.0113 5.07875 11.0742 5.65759 11.0742 7.22312 11.0742 8.39213 10.6683 9.16461 9.85675 9.93708 9.04719 10.3233 7.81845 10.3233 6.1705Z" transform="matrix(0.865664 -0.500626 -0.499792 -0.867108 928.712 580.997)"/><path d="M0 0 0 10.782" stroke="#000000" stroke-width="2.24625" stroke-linejoin="round" fill="none" transform="matrix(1 0 0 1.00167 972.953 546.9)"/><path d="M10.5829 13.9447 10.5829 12.0413C9.84334 12.3956 9.14504 12.6593 8.48792 12.8323 7.83081 13.0074 7.19634 13.095 6.58455 13.095 5.52369 13.095 4.70487 12.889 4.12809 12.477 3.5513 12.065 3.26292 11.4789 3.26292 10.7188 3.26292 10.0802 3.4545 9.59823 3.83763 9.27275 4.2208 8.94934 4.9469 8.68773 6.01601 8.48792L7.19326 8.2469C8.64757 7.96882 9.72077 7.48061 10.4129 6.78231 11.105 6.08398 11.4511 5.14982 11.4511 3.97977 11.4511 2.58109 10.9825 1.52125 10.0452 0.800282 9.11001 0.0793072 7.7381-0.281181 5.9295-0.281181 5.24767-0.281181 4.52154-0.203933 3.75113-0.0494382 2.98276 0.105056 2.18661 0.333708 1.36264 0.636517L1.36264 2.64494C2.15365 2.20206 2.92921 1.86732 3.68932 1.64073 4.44944 1.4162 5.19615 1.30393 5.9295 1.30393 7.04186 1.30393 7.90084 1.52228 8.50645 1.95899 9.11207 2.39775 9.41489 3.02295 9.41489 3.83454 9.41489 4.5411 9.19756 5.09419 8.76292 5.49381 8.32828 5.89345 7.61554 6.19316 6.62472 6.39297L5.43512 6.62472C3.9808 6.9131 2.92818 7.36629 2.27724 7.98427 1.62837 8.60225 1.30393 9.46227 1.30393 10.5643 1.30393 11.8394 1.753 12.8436 2.65111 13.577 3.54925 14.3103 4.78623 14.677 6.36208 14.677 7.0398 14.677 7.72883 14.6152 8.42921 14.4916 9.13165 14.37 9.84953 14.1877 10.5829 13.9447Z" transform="matrix(0.865664 -0.500626 -0.499792 -0.867108 945.198 610.184)"/><path d="M1.6809 4.26713 1.6809 10.8146 3.45759 10.8146 3.45759 4.33512C3.45759 3.31133 3.65637 2.54298 4.05393 2.03005 4.45355 1.51919 5.053 1.26376 5.85226 1.26376 6.81011 1.26376 7.56713 1.56966 8.12331 2.18145 8.68154 2.79326 8.96067 3.62754 8.96067 4.68427L8.96067 10.8146 10.7374 10.8146 10.7374 0 8.96067 0 8.96067 1.66236C8.53014 1.00524 8.02959 0.51704 7.459 0.197753 6.89046-0.121535 6.22921-0.281181 5.47528-0.281181 4.23314-0.281181 3.2897 0.105056 2.64494 0.877528 2.00225 1.65 1.6809 2.77987 1.6809 4.26713Z" transform="matrix(0.865664 -0.500626 -0.499792 -0.867108 956.065 603.9)"/><path d="M9.62809 5.39804C9.62809 6.70402 9.35926 7.72883 8.82163 8.47248 8.28398 9.21611 7.54549 9.58792 6.60617 9.58792 5.66479 9.58792 4.92527 9.21611 4.38764 8.47248 3.85001 7.72883 3.58118 6.70402 3.58118 5.39804 3.58118 4.09204 3.85001 3.06722 4.38764 2.32359 4.92527 1.57996 5.66479 1.20815 6.60617 1.20815 7.54549 1.20815 8.28398 1.57996 8.82163 2.32359 9.35926 3.06722 9.62809 4.09204 9.62809 5.39804ZM3.58118 9.17387C3.95608 9.81657 4.4278 10.2934 4.99634 10.6045 5.56694 10.9176 6.24776 11.0742 7.03877 11.0742 8.353 11.0742 9.42003 10.553 10.2399 9.51068 11.0618 8.46835 11.4727 7.09747 11.4727 5.39804 11.4727 3.69859 11.0618 2.32668 10.2399 1.2823 9.42003 0.239981 8.353-0.281181 7.03877-0.281181 6.24776-0.281181 5.56694-0.124625 4.99634 0.188483 4.4278 0.501592 3.95608 0.979493 3.58118 1.62219L3.58118 0 1.79522 0 1.79522 15.0261 3.58118 15.0261Z" transform="matrix(0.865664 -0.500626 -0.499792 -0.867108 966.914 597.626)"/><path d="M6.7792 5.43512C5.34344 5.43512 4.3485 5.27134 3.79438 4.94382 3.24026 4.6163 2.96321 4.05599 2.96321 3.26292 2.96321 2.63258 3.17126 2.13201 3.58735 1.76124 4.00347 1.39251 4.56789 1.20815 5.28061 1.20815 6.26732 1.20815 7.05833 1.5573 7.65364 2.25561 8.24896 2.95393 8.54664 3.88193 8.54664 5.03961L8.54664 5.43512ZM10.3233 6.1705 10.3233 0 8.54664 0 8.54664 1.64073C8.14083 0.985675 7.63512 0.501592 7.0295 0.188483 6.42388-0.124625 5.68333-0.281181 4.80786-0.281181 3.70169-0.281181 2.82106 0.029869 2.16601 0.651967 1.51301 1.27406 1.18652 2.10626 1.18652 3.1486 1.18652 4.36395 1.59335 5.28061 2.40703 5.89859 3.22276 6.51657 4.43811 6.82555 6.05309 6.82555L8.54664 6.82555 8.54664 7.00167C8.54664 7.81948 8.27781 8.45187 7.74016 8.89887 7.20253 9.34587 6.44757 9.56937 5.47528 9.56937 4.8573 9.56937 4.25477 9.49522 3.6677 9.3469 3.08267 9.19859 2.52032 8.97612 1.98061 8.67949L1.98061 10.3233C2.6295 10.5746 3.25984 10.7621 3.87162 10.8857 4.48343 11.0113 5.07875 11.0742 5.65759 11.0742 7.22312 11.0742 8.39213 10.6683 9.16461 9.85675 9.93708 9.04719 10.3233 7.81845 10.3233 6.1705Z" transform="matrix(0.865664 -0.500626 -0.499792 -0.867108 977.781 591.341)"/><path d="M8.1295 9.15534C7.92969 9.27069 7.71236 9.35515 7.47753 9.4087 7.24269 9.46433 6.98417 9.49213 6.70196 9.49213 5.69672 9.49213 4.92527 9.16564 4.38764 8.51264 3.85001 7.85964 3.58118 6.92135 3.58118 5.69775L3.58118 0 1.79522 0 1.79522 10.8146 3.58118 10.8146 3.58118 9.13371C3.95608 9.79082 4.44222 10.278 5.03961 10.5952 5.63904 10.9145 6.36722 11.0742 7.22415 11.0742 7.34568 11.0742 7.48061 11.0659 7.62893 11.0494 7.77724 11.035 7.941 11.0113 8.12022 10.9784Z" transform="matrix(0.865664 -0.500626 -0.499792 -0.867108 988.271 585.275)"/><path d="M1.6809 4.26713 1.6809 10.8146 3.45759 10.8146 3.45759 4.33512C3.45759 3.31133 3.65637 2.54298 4.05393 2.03005 4.45355 1.51919 5.053 1.26376 5.85226 1.26376 6.81011 1.26376 7.56713 1.56966 8.12331 2.18145 8.68154 2.79326 8.96067 3.62754 8.96067 4.68427L8.96067 10.8146 10.7374 10.8146 10.7374 0 8.96067 0 8.96067 1.66236C8.53014 1.00524 8.02959 0.51704 7.459 0.197753 6.89046-0.121535 6.22921-0.281181 5.47528-0.281181 4.23314-0.281181 3.2897 0.105056 2.64494 0.877528 2.00225 1.65 1.6809 2.77987 1.6809 4.26713Z" transform="matrix(0.865664 -0.500626 -0.499792 -0.867108 995.309 581.204)"/><path d="M0 0-10.782 0" stroke="#000000" stroke-width="2.24625" stroke-linejoin="round" fill="none" transform="matrix(1 0 0 1.00167 355.889 546.9)"/><path d="M6.2822 13.1265C5.27944 13.1265 4.52479 12.6324 4.01826 11.644 3.51379 10.6577 3.26156 9.17313 3.26156 7.19026 3.26156 5.21561 3.51379 3.73411 4.01826 2.74576 4.52479 1.75741 5.27944 1.26324 6.2822 1.26324 7.29321 1.26324 8.05096 1.75741 8.55541 2.74576 9.06196 3.73411 9.31522 5.21561 9.31522 7.19026 9.31522 9.17313 9.06196 10.6577 8.55541 11.644 8.05096 12.6324 7.29321 13.1265 6.2822 13.1265ZM6.2822 14.6709C7.89857 14.6709 9.13299 14.0315 9.98544 12.7528 10.8379 11.4762 11.2641 9.62202 11.2641 7.19026 11.2641 4.76469 10.8379 2.91256 9.98544 1.63387 9.13299 0.357248 7.89857-0.281064 6.2822-0.281064 4.66791-0.281064 3.43452 0.357248 2.58207 1.63387 1.72962 2.91256 1.30339 4.76469 1.30339 7.19026 1.30339 9.62202 1.72962 11.4762 2.58207 12.7528 3.43452 14.0315 4.66791 14.6709 6.2822 14.6709Z" transform="matrix(1 0 0 -1.00167 328.337 554.423)"/><path d="M0 0-10.782 0" stroke="#000000" stroke-width="2.24625" stroke-linejoin="round" fill="none" transform="matrix(1 0 0 1.00167 355.889 502.964)"/><path d="M3.7928 1.64005 10.597 1.64005 10.597 0 1.44855 0 1.44855 1.64005C2.18776 2.40602 3.19568 3.4335 4.47229 4.72247 5.75098 6.01351 6.554 6.84639 6.8814 7.22114 7.50531 7.92123 7.9408 8.51424 8.18789 9.00017 8.43703 9.48612 8.5616 9.96382 8.5616 10.4333 8.5616 11.1993 8.29289 11.8232 7.75548 12.305 7.21805 12.7889 6.51798 13.0308 5.65523 13.0308 5.04368 13.0308 4.39817 12.9248 3.71867 12.7127 3.04124 12.5006 2.31646 12.1784 1.5443 11.746L1.5443 13.7165C2.32879 14.0315 3.06184 14.2693 3.74338 14.4299 4.42699 14.5905 5.05192 14.6709 5.61817 14.6709 7.111 14.6709 8.30113 14.2971 9.18859 13.5497 10.0761 12.8043 10.5198 11.8077 10.5198 10.5599 10.5198 9.96692 10.4086 9.40478 10.1862 8.87354 9.96589 8.34436 9.56231 7.71945 8.97546 6.99876 8.81488 6.81139 8.30319 6.27192 7.44043 5.38035 6.57976 4.48876 5.36387 3.24199 3.7928 1.64005Z" transform="matrix(1 0 0 -1.00167 303.183 510.486)"/><path d="M6.2822 13.1265C5.27944 13.1265 4.52479 12.6324 4.01826 11.644 3.51379 10.6577 3.26156 9.17313 3.26156 7.19026 3.26156 5.21561 3.51379 3.73411 4.01826 2.74576 4.52479 1.75741 5.27944 1.26324 6.2822 1.26324 7.29321 1.26324 8.05096 1.75741 8.55541 2.74576 9.06196 3.73411 9.31522 5.21561 9.31522 7.19026 9.31522 9.17313 9.06196 10.6577 8.55541 11.644 8.05096 12.6324 7.29321 13.1265 6.2822 13.1265ZM6.2822 14.6709C7.89857 14.6709 9.13299 14.0315 9.98544 12.7528 10.8379 11.4762 11.2641 9.62202 11.2641 7.19026 11.2641 4.76469 10.8379 2.91256 9.98544 1.63387 9.13299 0.357248 7.89857-0.281064 6.2822-0.281064 4.66791-0.281064 3.43452 0.357248 2.58207 1.63387 1.72962 2.91256 1.30339 4.76469 1.30339 7.19026 1.30339 9.62202 1.72962 11.4762 2.58207 12.7528 3.43452 14.0315 4.66791 14.6709 6.2822 14.6709Z" transform="matrix(1 0 0 -1.00167 315.76 510.486)"/><path d="M6.2822 13.1265C5.27944 13.1265 4.52479 12.6324 4.01826 11.644 3.51379 10.6577 3.26156 9.17313 3.26156 7.19026 3.26156 5.21561 3.51379 3.73411 4.01826 2.74576 4.52479 1.75741 5.27944 1.26324 6.2822 1.26324 7.29321 1.26324 8.05096 1.75741 8.55541 2.74576 9.06196 3.73411 9.31522 5.21561 9.31522 7.19026 9.31522 9.17313 9.06196 10.6577 8.55541 11.644 8.05096 12.6324 7.29321 13.1265 6.2822 13.1265ZM6.2822 14.6709C7.89857 14.6709 9.13299 14.0315 9.98544 12.7528 10.8379 11.4762 11.2641 9.62202 11.2641 7.19026 11.2641 4.76469 10.8379 2.91256 9.98544 1.63387 9.13299 0.357248 7.89857-0.281064 6.2822-0.281064 4.66791-0.281064 3.43452 0.357248 2.58207 1.63387 1.72962 2.91256 1.30339 4.76469 1.30339 7.19026 1.30339 9.62202 1.72962 11.4762 2.58207 12.7528 3.43452 14.0315 4.66791 14.6709 6.2822 14.6709Z" transform="matrix(1 0 0 -1.00167 328.336 510.486)"/><path d="M0 0-10.782 0" stroke="#000000" stroke-width="2.24625" stroke-linejoin="round" fill="none" transform="matrix(1 0 0 1.00167 355.889 459.027)"/><path d="M7.47133 12.7127 2.54809 5.01897 7.47133 5.01897ZM6.95861 14.4114 9.41097 14.4114 9.41097 5.01897 11.468 5.01897 11.468 3.39746 9.41097 3.39746 9.41097 0 7.47133 0 7.47133 3.39746 0.966731 3.39746 0.966731 5.27841Z" transform="matrix(1 0 0 -1.00167 303.183 466.55)"/><path d="M6.2822 13.1265C5.27944 13.1265 4.52479 12.6324 4.01826 11.644 3.51379 10.6577 3.26156 9.17313 3.26156 7.19026 3.26156 5.21561 3.51379 3.73411 4.01826 2.74576 4.52479 1.75741 5.27944 1.26324 6.2822 1.26324 7.29321 1.26324 8.05096 1.75741 8.55541 2.74576 9.06196 3.73411 9.31522 5.21561 9.31522 7.19026 9.31522 9.17313 9.06196 10.6577 8.55541 11.644 8.05096 12.6324 7.29321 13.1265 6.2822 13.1265ZM6.2822 14.6709C7.89857 14.6709 9.13299 14.0315 9.98544 12.7528 10.8379 11.4762 11.2641 9.62202 11.2641 7.19026 11.2641 4.76469 10.8379 2.91256 9.98544 1.63387 9.13299 0.357248 7.89857-0.281064 6.2822-0.281064 4.66791-0.281064 3.43452 0.357248 2.58207 1.63387 1.72962 2.91256 1.30339 4.76469 1.30339 7.19026 1.30339 9.62202 1.72962 11.4762 2.58207 12.7528 3.43452 14.0315 4.66791 14.6709 6.2822 14.6709Z" transform="matrix(1 0 0 -1.00167 315.76 466.55)"/><path d="M6.2822 13.1265C5.27944 13.1265 4.52479 12.6324 4.01826 11.644 3.51379 10.6577 3.26156 9.17313 3.26156 7.19026 3.26156 5.21561 3.51379 3.73411 4.01826 2.74576 4.52479 1.75741 5.27944 1.26324 6.2822 1.26324 7.29321 1.26324 8.05096 1.75741 8.55541 2.74576 9.06196 3.73411 9.31522 5.21561 9.31522 7.19026 9.31522 9.17313 9.06196 10.6577 8.55541 11.644 8.05096 12.6324 7.29321 13.1265 6.2822 13.1265ZM6.2822 14.6709C7.89857 14.6709 9.13299 14.0315 9.98544 12.7528 10.8379 11.4762 11.2641 9.62202 11.2641 7.19026 11.2641 4.76469 10.8379 2.91256 9.98544 1.63387 9.13299 0.357248 7.89857-0.281064 6.2822-0.281064 4.66791-0.281064 3.43452 0.357248 2.58207 1.63387 1.72962 2.91256 1.30339 4.76469 1.30339 7.19026 1.30339 9.62202 1.72962 11.4762 2.58207 12.7528 3.43452 14.0315 4.66791 14.6709 6.2822 14.6709Z" transform="matrix(1 0 0 -1.00167 328.336 466.55)"/><path d="M0 0-10.782 0" stroke="#000000" stroke-width="2.24625" stroke-linejoin="round" fill="none" transform="matrix(1 0 0 1.00167 355.889 415.092)"/><path d="M6.52621 7.98094C5.6511 7.98094 4.9572 7.68135 4.4445 7.08216 3.93384 6.48503 3.67853 5.66553 3.67853 4.62363 3.67853 3.58792 3.93384 2.76841 4.4445 2.1651 4.9572 1.56386 5.6511 1.26324 6.52621 1.26324 7.40131 1.26324 8.09419 1.56386 8.60483 2.1651 9.11549 2.76841 9.3708 3.58792 9.3708 4.62363 9.3708 5.66553 9.11549 6.48503 8.60483 7.08216 8.09419 7.68135 7.40131 7.98094 6.52621 7.98094ZM10.3962 14.0933 10.3962 12.3173C9.90617 12.548 9.412 12.724 8.91371 12.8455 8.4154 12.969 7.92123 13.0308 7.43118 13.0308 6.14425 13.0308 5.16106 12.5964 4.48156 11.7274 3.80413 10.8585 3.41703 9.54584 3.32025 7.78944 3.69911 8.34952 4.17476 8.77884 4.74717 9.0774 5.32166 9.37596 5.95277 9.52524 6.6405 9.52524 8.08802 9.52524 9.23182 9.08562 10.0719 8.20641 10.912 7.32924 11.3321 6.135 11.3321 4.62363 11.3321 3.14316 10.8945 1.95508 10.0194 1.05939 9.14431 0.165755 7.97992-0.281064 6.52621-0.281064 4.85836-0.281064 3.5838 0.357248 2.70253 1.63387 1.82124 2.91256 1.38061 4.76469 1.38061 7.19026 1.38061 9.46758 1.92111 11.2837 3.00212 12.6386 4.08312 13.9934 5.53374 14.6709 7.35395 14.6709 7.84402 14.6709 8.33819 14.6225 8.83648 14.5257 9.33479 14.4289 9.8547 14.2848 10.3962 14.0933Z" transform="matrix(1 0 0 -1.00167 303.183 422.613)"/><path d="M6.2822 13.1265C5.27944 13.1265 4.52479 12.6324 4.01826 11.644 3.51379 10.6577 3.26156 9.17313 3.26156 7.19026 3.26156 5.21561 3.51379 3.73411 4.01826 2.74576 4.52479 1.75741 5.27944 1.26324 6.2822 1.26324 7.29321 1.26324 8.05096 1.75741 8.55541 2.74576 9.06196 3.73411 9.31522 5.21561 9.31522 7.19026 9.31522 9.17313 9.06196 10.6577 8.55541 11.644 8.05096 12.6324 7.29321 13.1265 6.2822 13.1265ZM6.2822 14.6709C7.89857 14.6709 9.13299 14.0315 9.98544 12.7528 10.8379 11.4762 11.2641 9.62202 11.2641 7.19026 11.2641 4.76469 10.8379 2.91256 9.98544 1.63387 9.13299 0.357248 7.89857-0.281064 6.2822-0.281064 4.66791-0.281064 3.43452 0.357248 2.58207 1.63387 1.72962 2.91256 1.30339 4.76469 1.30339 7.19026 1.30339 9.62202 1.72962 11.4762 2.58207 12.7528 3.43452 14.0315 4.66791 14.6709 6.2822 14.6709Z" transform="matrix(1 0 0 -1.00167 315.76 422.613)"/><path d="M6.2822 13.1265C5.27944 13.1265 4.52479 12.6324 4.01826 11.644 3.51379 10.6577 3.26156 9.17313 3.26156 7.19026 3.26156 5.21561 3.51379 3.73411 4.01826 2.74576 4.52479 1.75741 5.27944 1.26324 6.2822 1.26324 7.29321 1.26324 8.05096 1.75741 8.55541 2.74576 9.06196 3.73411 9.31522 5.21561 9.31522 7.19026 9.31522 9.17313 9.06196 10.6577 8.55541 11.644 8.05096 12.6324 7.29321 13.1265 6.2822 13.1265ZM6.2822 14.6709C7.89857 14.6709 9.13299 14.0315 9.98544 12.7528 10.8379 11.4762 11.2641 9.62202 11.2641 7.19026 11.2641 4.76469 10.8379 2.91256 9.98544 1.63387 9.13299 0.357248 7.89857-0.281064 6.2822-0.281064 4.66791-0.281064 3.43452 0.357248 2.58207 1.63387 1.72962 2.91256 1.30339 4.76469 1.30339 7.19026 1.30339 9.62202 1.72962 11.4762 2.58207 12.7528 3.43452 14.0315 4.66791 14.6709 6.2822 14.6709Z" transform="matrix(1 0 0 -1.00167 328.336 422.613)"/><path d="M0 0-10.782 0" stroke="#000000" stroke-width="2.24625" stroke-linejoin="round" fill="none" transform="matrix(1 0 0 1.00167 355.889 371.155)"/><path d="M6.2822 6.84434C5.35564 6.84434 4.62671 6.59622 4.09549 6.09999 3.56631 5.60376 3.30171 4.92219 3.30171 4.05533 3.30171 3.18641 3.56631 2.50383 4.09549 2.00758 4.62671 1.51135 5.35564 1.26324 6.2822 1.26324 7.2088 1.26324 7.93874 1.51238 8.47204 2.01068 9.00739 2.51103 9.27507 3.19257 9.27507 4.05533 9.27507 4.92219 9.00944 5.60376 8.4782 6.09999 7.94902 6.59622 7.21703 6.84434 6.2822 6.84434ZM4.33331 7.67208C3.49732 7.878 2.84562 8.26715 2.37821 8.83958 1.91287 9.41405 1.6802 10.1131 1.6802 10.9367 1.6802 12.0877 2.08995 12.9979 2.90947 13.6671 3.73103 14.3362 4.85528 14.6709 6.2822 14.6709 7.71739 14.6709 8.8437 14.3362 9.66114 13.6671 10.4786 12.9979 10.8873 12.0877 10.8873 10.9367 10.8873 10.1131 10.6536 9.41405 10.1862 8.83958 9.72086 8.26715 9.07327 7.878 8.24347 7.67208 9.1824 7.45382 9.91337 7.02554 10.4364 6.38723 10.9614 5.75098 11.224 4.97368 11.224 4.05533 11.224 2.65722 10.7977 1.58445 9.94529 0.837012 9.09284 0.0916286 7.87181-0.281064 6.2822-0.281064 4.69467-0.281064 3.47364 0.0916286 2.61913 0.837012 1.76668 1.58445 1.34045 2.65722 1.34045 4.05533 1.34045 4.97368 1.60401 5.75098 2.13112 6.38723 2.66031 7.02554 3.39438 7.45382 4.33331 7.67208ZM3.61984 10.7514C3.61984 10.006 3.85252 9.42435 4.31787 9.00636 4.78526 8.58836 5.44005 8.37937 6.2822 8.37937 7.12025 8.37937 7.77503 8.58836 8.24657 9.00636 8.72015 9.42435 8.95694 10.006 8.95694 10.7514 8.95694 11.4989 8.72015 12.0816 8.24657 12.4996 7.77503 12.9176 7.12025 13.1265 6.2822 13.1265 5.44005 13.1265 4.78526 12.9176 4.31787 12.4996 3.85252 12.0816 3.61984 11.4989 3.61984 10.7514Z" transform="matrix(1 0 0 -1.00167 303.183 378.678)"/><path d="M6.2822 13.1265C5.27944 13.1265 4.52479 12.6324 4.01826 11.644 3.51379 10.6577 3.26156 9.17313 3.26156 7.19026 3.26156 5.21561 3.51379 3.73411 4.01826 2.74576 4.52479 1.75741 5.27944 1.26324 6.2822 1.26324 7.29321 1.26324 8.05096 1.75741 8.55541 2.74576 9.06196 3.73411 9.31522 5.21561 9.31522 7.19026 9.31522 9.17313 9.06196 10.6577 8.55541 11.644 8.05096 12.6324 7.29321 13.1265 6.2822 13.1265ZM6.2822 14.6709C7.89857 14.6709 9.13299 14.0315 9.98544 12.7528 10.8379 11.4762 11.2641 9.62202 11.2641 7.19026 11.2641 4.76469 10.8379 2.91256 9.98544 1.63387 9.13299 0.357248 7.89857-0.281064 6.2822-0.281064 4.66791-0.281064 3.43452 0.357248 2.58207 1.63387 1.72962 2.91256 1.30339 4.76469 1.30339 7.19026 1.30339 9.62202 1.72962 11.4762 2.58207 12.7528 3.43452 14.0315 4.66791 14.6709 6.2822 14.6709Z" transform="matrix(1 0 0 -1.00167 315.76 378.678)"/><path d="M6.2822 13.1265C5.27944 13.1265 4.52479 12.6324 4.01826 11.644 3.51379 10.6577 3.26156 9.17313 3.26156 7.19026 3.26156 5.21561 3.51379 3.73411 4.01826 2.74576 4.52479 1.75741 5.27944 1.26324 6.2822 1.26324 7.29321 1.26324 8.05096 1.75741 8.55541 2.74576 9.06196 3.73411 9.31522 5.21561 9.31522 7.19026 9.31522 9.17313 9.06196 10.6577 8.55541 11.644 8.05096 12.6324 7.29321 13.1265 6.2822 13.1265ZM6.2822 14.6709C7.89857 14.6709 9.13299 14.0315 9.98544 12.7528 10.8379 11.4762 11.2641 9.62202 11.2641 7.19026 11.2641 4.76469 10.8379 2.91256 9.98544 1.63387 9.13299 0.357248 7.89857-0.281064 6.2822-0.281064 4.66791-0.281064 3.43452 0.357248 2.58207 1.63387 1.72962 2.91256 1.30339 4.76469 1.30339 7.19026 1.30339 9.62202 1.72962 11.4762 2.58207 12.7528 3.43452 14.0315 4.66791 14.6709 6.2822 14.6709Z" transform="matrix(1 0 0 -1.00167 328.336 378.678)"/><path d="M0 0-10.782 0" stroke="#000000" stroke-width="2.24625" stroke-linejoin="round" fill="none" transform="matrix(1 0 0 1.00167 355.889 327.219)"/><path d="M2.45234 1.64005 5.63669 1.64005 5.63669 12.6355 2.17129 11.9405 2.17129 13.7165 5.61817 14.4114 7.56706 14.4114 7.56706 1.64005 10.7514 1.64005 10.7514 0 2.45234 0Z" transform="matrix(1 0 0 -1.00167 290.606 334.741)"/><path d="M6.2822 13.1265C5.27944 13.1265 4.52479 12.6324 4.01826 11.644 3.51379 10.6577 3.26156 9.17313 3.26156 7.19026 3.26156 5.21561 3.51379 3.73411 4.01826 2.74576 4.52479 1.75741 5.27944 1.26324 6.2822 1.26324 7.29321 1.26324 8.05096 1.75741 8.55541 2.74576 9.06196 3.73411 9.31522 5.21561 9.31522 7.19026 9.31522 9.17313 9.06196 10.6577 8.55541 11.644 8.05096 12.6324 7.29321 13.1265 6.2822 13.1265ZM6.2822 14.6709C7.89857 14.6709 9.13299 14.0315 9.98544 12.7528 10.8379 11.4762 11.2641 9.62202 11.2641 7.19026 11.2641 4.76469 10.8379 2.91256 9.98544 1.63387 9.13299 0.357248 7.89857-0.281064 6.2822-0.281064 4.66791-0.281064 3.43452 0.357248 2.58207 1.63387 1.72962 2.91256 1.30339 4.76469 1.30339 7.19026 1.30339 9.62202 1.72962 11.4762 2.58207 12.7528 3.43452 14.0315 4.66791 14.6709 6.2822 14.6709Z" transform="matrix(1 0 0 -1.00167 303.183 334.741)"/><path d="M6.2822 13.1265C5.27944 13.1265 4.52479 12.6324 4.01826 11.644 3.51379 10.6577 3.26156 9.17313 3.26156 7.19026 3.26156 5.21561 3.51379 3.73411 4.01826 2.74576 4.52479 1.75741 5.27944 1.26324 6.2822 1.26324 7.29321 1.26324 8.05096 1.75741 8.55541 2.74576 9.06196 3.73411 9.31522 5.21561 9.31522 7.19026 9.31522 9.17313 9.06196 10.6577 8.55541 11.644 8.05096 12.6324 7.29321 13.1265 6.2822 13.1265ZM6.2822 14.6709C7.89857 14.6709 9.13299 14.0315 9.98544 12.7528 10.8379 11.4762 11.2641 9.62202 11.2641 7.19026 11.2641 4.76469 10.8379 2.91256 9.98544 1.63387 9.13299 0.357248 7.89857-0.281064 6.2822-0.281064 4.66791-0.281064 3.43452 0.357248 2.58207 1.63387 1.72962 2.91256 1.30339 4.76469 1.30339 7.19026 1.30339 9.62202 1.72962 11.4762 2.58207 12.7528 3.43452 14.0315 4.66791 14.6709 6.2822 14.6709Z" transform="matrix(1 0 0 -1.00167 315.759 334.741)"/><path d="M6.2822 13.1265C5.27944 13.1265 4.52479 12.6324 4.01826 11.644 3.51379 10.6577 3.26156 9.17313 3.26156 7.19026 3.26156 5.21561 3.51379 3.73411 4.01826 2.74576 4.52479 1.75741 5.27944 1.26324 6.2822 1.26324 7.29321 1.26324 8.05096 1.75741 8.55541 2.74576 9.06196 3.73411 9.31522 5.21561 9.31522 7.19026 9.31522 9.17313 9.06196 10.6577 8.55541 11.644 8.05096 12.6324 7.29321 13.1265 6.2822 13.1265ZM6.2822 14.6709C7.89857 14.6709 9.13299 14.0315 9.98544 12.7528 10.8379 11.4762 11.2641 9.62202 11.2641 7.19026 11.2641 4.76469 10.8379 2.91256 9.98544 1.63387 9.13299 0.357248 7.89857-0.281064 6.2822-0.281064 4.66791-0.281064 3.43452 0.357248 2.58207 1.63387 1.72962 2.91256 1.30339 4.76469 1.30339 7.19026 1.30339 9.62202 1.72962 11.4762 2.58207 12.7528 3.43452 14.0315 4.66791 14.6709 6.2822 14.6709Z" transform="matrix(1 0 0 -1.00167 328.336 334.741)"/><path d="M0 0-10.782 0" stroke="#000000" stroke-width="2.24625" stroke-linejoin="round" fill="none" transform="matrix(1 0 0 1.00167 355.889 283.283)"/><path d="M2.45234 1.64005 5.63669 1.64005 5.63669 12.6355 2.17129 11.9405 2.17129 13.7165 5.61817 14.4114 7.56706 14.4114 7.56706 1.64005 10.7514 1.64005 10.7514 0 2.45234 0Z" transform="matrix(1 0 0 -1.00167 290.606 290.805)"/><path d="M3.7928 1.64005 10.597 1.64005 10.597 0 1.44855 0 1.44855 1.64005C2.18776 2.40602 3.19568 3.4335 4.47229 4.72247 5.75098 6.01351 6.554 6.84639 6.8814 7.22114 7.50531 7.92123 7.9408 8.51424 8.18789 9.00017 8.43703 9.48612 8.5616 9.96382 8.5616 10.4333 8.5616 11.1993 8.29289 11.8232 7.75548 12.305 7.21805 12.7889 6.51798 13.0308 5.65523 13.0308 5.04368 13.0308 4.39817 12.9248 3.71867 12.7127 3.04124 12.5006 2.31646 12.1784 1.5443 11.746L1.5443 13.7165C2.32879 14.0315 3.06184 14.2693 3.74338 14.4299 4.42699 14.5905 5.05192 14.6709 5.61817 14.6709 7.111 14.6709 8.30113 14.2971 9.18859 13.5497 10.0761 12.8043 10.5198 11.8077 10.5198 10.5599 10.5198 9.96692 10.4086 9.40478 10.1862 8.87354 9.96589 8.34436 9.56231 7.71945 8.97546 6.99876 8.81488 6.81139 8.30319 6.27192 7.44043 5.38035 6.57976 4.48876 5.36387 3.24199 3.7928 1.64005Z" transform="matrix(1 0 0 -1.00167 303.183 290.805)"/><path d="M6.2822 13.1265C5.27944 13.1265 4.52479 12.6324 4.01826 11.644 3.51379 10.6577 3.26156 9.17313 3.26156 7.19026 3.26156 5.21561 3.51379 3.73411 4.01826 2.74576 4.52479 1.75741 5.27944 1.26324 6.2822 1.26324 7.29321 1.26324 8.05096 1.75741 8.55541 2.74576 9.06196 3.73411 9.31522 5.21561 9.31522 7.19026 9.31522 9.17313 9.06196 10.6577 8.55541 11.644 8.05096 12.6324 7.29321 13.1265 6.2822 13.1265ZM6.2822 14.6709C7.89857 14.6709 9.13299 14.0315 9.98544 12.7528 10.8379 11.4762 11.2641 9.62202 11.2641 7.19026 11.2641 4.76469 10.8379 2.91256 9.98544 1.63387 9.13299 0.357248 7.89857-0.281064 6.2822-0.281064 4.66791-0.281064 3.43452 0.357248 2.58207 1.63387 1.72962 2.91256 1.30339 4.76469 1.30339 7.19026 1.30339 9.62202 1.72962 11.4762 2.58207 12.7528 3.43452 14.0315 4.66791 14.6709 6.2822 14.6709Z" transform="matrix(1 0 0 -1.00167 315.759 290.805)"/><path d="M6.2822 13.1265C5.27944 13.1265 4.52479 12.6324 4.01826 11.644 3.51379 10.6577 3.26156 9.17313 3.26156 7.19026 3.26156 5.21561 3.51379 3.73411 4.01826 2.74576 4.52479 1.75741 5.27944 1.26324 6.2822 1.26324 7.29321 1.26324 8.05096 1.75741 8.55541 2.74576 9.06196 3.73411 9.31522 5.21561 9.31522 7.19026 9.31522 9.17313 9.06196 10.6577 8.55541 11.644 8.05096 12.6324 7.29321 13.1265 6.2822 13.1265ZM6.2822 14.6709C7.89857 14.6709 9.13299 14.0315 9.98544 12.7528 10.8379 11.4762 11.2641 9.62202 11.2641 7.19026 11.2641 4.76469 10.8379 2.91256 9.98544 1.63387 9.13299 0.357248 7.89857-0.281064 6.2822-0.281064 4.66791-0.281064 3.43452 0.357248 2.58207 1.63387 1.72962 2.91256 1.30339 4.76469 1.30339 7.19026 1.30339 9.62202 1.72962 11.4762 2.58207 12.7528 3.43452 14.0315 4.66791 14.6709 6.2822 14.6709Z" transform="matrix(1 0 0 -1.00167 328.336 290.805)"/><path d="M0 0-10.782 0" stroke="#000000" stroke-width="2.24625" stroke-linejoin="round" fill="none" transform="matrix(1 0 0 1.00167 355.889 239.346)"/><path d="M2.45234 1.64005 5.63669 1.64005 5.63669 12.6355 2.17129 11.9405 2.17129 13.7165 5.61817 14.4114 7.56706 14.4114 7.56706 1.64005 10.7514 1.64005 10.7514 0 2.45234 0Z" transform="matrix(1 0 0 -1.00167 290.606 246.869)"/><path d="M7.47133 12.7127 2.54809 5.01897 7.47133 5.01897ZM6.95861 14.4114 9.41097 14.4114 9.41097 5.01897 11.468 5.01897 11.468 3.39746 9.41097 3.39746 9.41097 0 7.47133 0 7.47133 3.39746 0.966731 3.39746 0.966731 5.27841Z" transform="matrix(1 0 0 -1.00167 303.183 246.869)"/><path d="M6.2822 13.1265C5.27944 13.1265 4.52479 12.6324 4.01826 11.644 3.51379 10.6577 3.26156 9.17313 3.26156 7.19026 3.26156 5.21561 3.51379 3.73411 4.01826 2.74576 4.52479 1.75741 5.27944 1.26324 6.2822 1.26324 7.29321 1.26324 8.05096 1.75741 8.55541 2.74576 9.06196 3.73411 9.31522 5.21561 9.31522 7.19026 9.31522 9.17313 9.06196 10.6577 8.55541 11.644 8.05096 12.6324 7.29321 13.1265 6.2822 13.1265ZM6.2822 14.6709C7.89857 14.6709 9.13299 14.0315 9.98544 12.7528 10.8379 11.4762 11.2641 9.62202 11.2641 7.19026 11.2641 4.76469 10.8379 2.91256 9.98544 1.63387 9.13299 0.357248 7.89857-0.281064 6.2822-0.281064 4.66791-0.281064 3.43452 0.357248 2.58207 1.63387 1.72962 2.91256 1.30339 4.76469 1.30339 7.19026 1.30339 9.62202 1.72962 11.4762 2.58207 12.7528 3.43452 14.0315 4.66791 14.6709 6.2822 14.6709Z" transform="matrix(1 0 0 -1.00167 315.759 246.869)"/><path d="M6.2822 13.1265C5.27944 13.1265 4.52479 12.6324 4.01826 11.644 3.51379 10.6577 3.26156 9.17313 3.26156 7.19026 3.26156 5.21561 3.51379 3.73411 4.01826 2.74576 4.52479 1.75741 5.27944 1.26324 6.2822 1.26324 7.29321 1.26324 8.05096 1.75741 8.55541 2.74576 9.06196 3.73411 9.31522 5.21561 9.31522 7.19026 9.31522 9.17313 9.06196 10.6577 8.55541 11.644 8.05096 12.6324 7.29321 13.1265 6.2822 13.1265ZM6.2822 14.6709C7.89857 14.6709 9.13299 14.0315 9.98544 12.7528 10.8379 11.4762 11.2641 9.62202 11.2641 7.19026 11.2641 4.76469 10.8379 2.91256 9.98544 1.63387 9.13299 0.357248 7.89857-0.281064 6.2822-0.281064 4.66791-0.281064 3.43452 0.357248 2.58207 1.63387 1.72962 2.91256 1.30339 4.76469 1.30339 7.19026 1.30339 9.62202 1.72962 11.4762 2.58207 12.7528 3.43452 14.0315 4.66791 14.6709 6.2822 14.6709Z" transform="matrix(1 0 0 -1.00167 328.336 246.869)"/><path d="M2.35108 17.4684 5.53329 17.4684 13.2791 2.85649 13.2791 17.4684 15.5703 17.4684 15.5703 0 12.3881 0 4.646 14.6119 4.646 0 2.35108 0Z" transform="matrix(6.12325e-17 -1.00167 -1 -6.13347e-17 280.832 500.213)"/><path d="M2.0366 5.17012 2.0366 13.1032 4.18927 13.1032 4.18927 5.2525C4.18927 4.01206 4.43012 3.08112 4.91181 2.45964 5.396 1.84068 6.1223 1.5312 7.09069 1.5312 8.25124 1.5312 9.16846 1.90183 9.84233 2.64308 10.5187 3.38436 10.8569 4.39518 10.8569 5.67554L10.8569 13.1032 13.0096 13.1032 13.0096 0 10.8569 0 10.8569 2.01414C10.3353 1.21797 9.72879 0.626455 9.03744 0.239601 8.34859-0.147254 7.54742-0.340683 6.63394-0.340683 5.12894-0.340683 3.98585 0.127288 3.20466 1.06323 2.42596 1.99917 2.0366 3.36814 2.0366 5.17012Z" transform="matrix(6.12325e-17 -1.00167 -1 -6.13347e-17 280.832 482.259)"/><path d="M12.4592 10.5873C12.9983 11.5557 13.6423 12.2695 14.391 12.7288 15.1398 13.188 16.0208 13.4176 17.0341 13.4176 18.3993 13.4176 19.4526 12.9397 20.1938 11.9838 20.9351 11.0304 21.3057 9.67263 21.3057 7.91055L21.3057 0 19.1418 0 19.1418 7.83944C19.1418 9.09483 18.9184 10.0258 18.4717 10.6323 18.0274 11.2413 17.3498 11.5458 16.4388 11.5458 15.3232 11.5458 14.4409 11.1751 13.792 10.4339 13.1456 9.69508 12.8224 8.68552 12.8224 7.40514L12.8224 0 10.6585 0 10.6585 7.83944C10.6585 9.10233 10.4364 10.0358 9.99208 10.6397 9.54784 11.2438 8.86148 11.5458 7.93303 11.5458 6.83235 11.5458 5.95757 11.1739 5.30864 10.4301 4.66222 9.68635 4.33902 8.67804 4.33902 7.40514L4.33902 0 2.17512 0 2.17512 13.1032 4.33902 13.1032 4.33902 11.0665C4.83071 11.8702 5.41972 12.463 6.10608 12.8448 6.79244 13.2267 7.60732 13.4176 8.55074 13.4176 9.50416 13.4176 10.3141 13.1755 10.9804 12.6914 11.6468 12.2096 12.1398 11.5083 12.4592 10.5873Z" transform="matrix(6.12325e-17 -1.00167 -1 -6.13347e-17 280.832 467.048)"/><path d="M11.6656 6.54035C11.6656 8.1227 11.3398 9.36438 10.6884 10.2654 10.037 11.1664 9.14225 11.6169 8.00414 11.6169 6.86355 11.6169 5.96754 11.1664 5.31614 10.2654 4.66473 9.36438 4.33902 8.1227 4.33902 6.54035 4.33902 4.95798 4.66473 3.7163 5.31614 2.81531 5.96754 1.91431 6.86355 1.46381 8.00414 1.46381 9.14225 1.46381 10.037 1.91431 10.6884 2.81531 11.3398 3.7163 11.6656 4.95798 11.6656 6.54035ZM4.33902 11.1152C4.79326 11.8939 5.3648 12.4717 6.05365 12.8486 6.74499 13.2279 7.56989 13.4176 8.52829 13.4176 10.1206 13.4176 11.4135 12.7862 12.4068 11.5233 13.4027 10.2604 13.9006 8.59941 13.9006 6.54035 13.9006 4.48127 13.4027 2.81904 12.4068 1.55366 11.4135 0.290765 10.1206-0.340683 8.52829-0.340683 7.56989-0.340683 6.74499-0.150998 6.05365 0.228369 5.3648 0.607737 4.79326 1.18677 4.33902 1.96547L4.33902 0 2.17512 0 2.17512 18.2059 4.33902 18.2059Z" transform="matrix(6.12325e-17 -1.00167 -1 -6.13347e-17 280.832 443.669)"/><path d="M13.4663 7.09069 13.4663 6.03868 3.5678 6.03868C3.66265 4.55615 4.10939 3.42679 4.90807 2.65058 5.70673 1.87438 6.81987 1.48627 8.24751 1.48627 9.07362 1.48627 9.87478 1.58735 10.651 1.78952 11.4272 1.99168 12.1984 2.29617 12.9646 2.70298L12.9646 0.666389C12.1909 0.339435 11.3985 0.0898502 10.5873-0.0823627 9.77621-0.254576 8.95382-0.340683 8.1202-0.340683 6.02871-0.340683 4.37271 0.267054 3.15223 1.48253 1.93178 2.70049 1.32155 4.34774 1.32155 6.42429 1.32155 8.56821 1.90058 10.2691 3.05864 11.527 4.21673 12.7874 5.77912 13.4176 7.74583 13.4176 9.5079 13.4176 10.9018 12.8498 11.9276 11.7142 12.9534 10.5811 13.4663 9.03994 13.4663 7.09069ZM11.3136 7.72338C11.2987 8.89891 10.9692 9.83735 10.3253 10.5387 9.68135 11.2425 8.82904 11.5944 7.7683 11.5944 6.56781 11.5944 5.60689 11.255 4.8856 10.5761 4.1643 9.89725 3.74874 8.94134 3.63893 7.7084Z" transform="matrix(6.12325e-17 -1.00167 -1 -6.13347e-17 280.832 428.435)"/><path d="M9.84983 11.0928C9.60774 11.2325 9.34442 11.3349 9.05989 11.3997 8.77537 11.4671 8.46214 11.5008 8.1202 11.5008 6.90224 11.5008 5.96754 11.1052 5.31614 10.3141 4.66473 9.52287 4.33902 8.38602 4.33902 6.90349L4.33902 0 2.17512 0 2.17512 13.1032 4.33902 13.1032 4.33902 11.0665C4.79326 11.8627 5.38227 12.453 6.10608 12.8373 6.83235 13.2242 7.71463 13.4176 8.75289 13.4176 8.90015 13.4176 9.06363 13.4076 9.24333 13.3877 9.42303 13.3702 9.62145 13.3415 9.8386 13.3016Z" transform="matrix(6.12325e-17 -1.00167 -1 -6.13347e-17 280.832 413.669)"/><path d="M7.33403 11.5944C6.18095 11.5944 5.26872 11.1439 4.59733 10.2429 3.92595 9.34193 3.59027 8.10772 3.59027 6.54035 3.59027 4.97296 3.92346 3.73877 4.58984 2.83778 5.25873 1.93677 6.17345 1.48627 7.33403 1.48627 8.4821 1.48627 9.39059 1.93802 10.0595 2.84152 10.7309 3.7475 11.0665 4.98046 11.0665 6.54035 11.0665 8.09275 10.7309 9.32322 10.0595 10.2317 9.39059 11.1402 8.4821 11.5944 7.33403 11.5944ZM7.33403 13.4176C9.20591 13.4176 10.676 12.8086 11.7442 11.5907 12.8149 10.3752 13.3503 8.69175 13.3503 6.54035 13.3503 4.39643 12.8149 2.71297 11.7442 1.49002 10.676 0.269551 9.20591-0.340683 7.33403-0.340683 5.45465-0.340683 3.98211 0.269551 2.91639 1.49002 1.85316 2.71297 1.32155 4.39643 1.32155 6.54035 1.32155 8.69175 1.85316 10.3752 2.91639 11.5907 3.98211 12.8086 5.45465 13.4176 7.33403 13.4176Z" transform="matrix(6.12325e-17 -1.00167 -1 -6.13347e-17 280.832 396.173)"/><path d="M8.89143 18.2059 8.89143 16.4126 6.83235 16.4126C6.06115 16.4126 5.52454 16.2567 5.22255 15.9447 4.92305 15.6327 4.7733 15.0711 4.7733 14.26L4.7733 13.1032 8.31864 13.1032 8.31864 11.4297 4.7733 11.4297 4.7733 0 2.60939 0 2.60939 11.4297 0.550334 11.4297 0.550334 13.1032 2.60939 13.1032 2.60939 14.0166C2.60939 15.4742 2.94884 16.5362 3.6277 17.2026 4.30658 17.8714 5.38227 18.2059 6.85483 18.2059Z" transform="matrix(6.12325e-17 -1.00167 -1 -6.13347e-17 280.832 381.49)"/><path d="M0.715059 13.1032 2.99501 13.1032 7.09069 2.10774 11.1863 13.1032 13.4663 13.1032 8.55074 0 5.62687 0Z" transform="matrix(6.12325e-17 -1.00167 -1 -6.13347e-17 280.832 365.411)"/><path d="M13.4663 7.09069 13.4663 6.03868 3.5678 6.03868C3.66265 4.55615 4.10939 3.42679 4.90807 2.65058 5.70673 1.87438 6.81987 1.48627 8.24751 1.48627 9.07362 1.48627 9.87478 1.58735 10.651 1.78952 11.4272 1.99168 12.1984 2.29617 12.9646 2.70298L12.9646 0.666389C12.1909 0.339435 11.3985 0.0898502 10.5873-0.0823627 9.77621-0.254576 8.95382-0.340683 8.1202-0.340683 6.02871-0.340683 4.37271 0.267054 3.15223 1.48253 1.93178 2.70049 1.32155 4.34774 1.32155 6.42429 1.32155 8.56821 1.90058 10.2691 3.05864 11.527 4.21673 12.7874 5.77912 13.4176 7.74583 13.4176 9.5079 13.4176 10.9018 12.8498 11.9276 11.7142 12.9534 10.5811 13.4663 9.03994 13.4663 7.09069ZM11.3136 7.72338C11.2987 8.89891 10.9692 9.83735 10.3253 10.5387 9.68135 11.2425 8.82904 11.5944 7.7683 11.5944 6.56781 11.5944 5.60689 11.255 4.8856 10.5761 4.1643 9.89725 3.74874 8.94134 3.63893 7.7084Z" transform="matrix(6.12325e-17 -1.00167 -1 -6.13347e-17 280.832 351.208)"/><path d="M13.1518 7.91055 13.1518 0 10.9991 0 10.9991 7.83944C10.9991 9.07985 10.7571 10.0071 10.2729 10.621 9.78869 11.2375 9.06363 11.5458 8.09776 11.5458 6.93469 11.5458 6.01747 11.1751 5.34609 10.4339 4.6747 9.69508 4.33902 8.68552 4.33902 7.40514L4.33902 0 2.17512 0 2.17512 18.2059 4.33902 18.2059 4.33902 11.0665C4.85565 11.8552 5.46215 12.4443 6.15848 12.8336 6.85732 13.223 7.66348 13.4176 8.57696 13.4176 10.0819 13.4176 11.22 12.9522 11.9913 12.0212 12.765 11.0903 13.1518 9.72004 13.1518 7.91055Z" transform="matrix(6.12325e-17 -1.00167 -1 -6.13347e-17 280.832 336.443)"/><path d="M2.25749 13.1032 4.41014 13.1032 4.41014 0 2.25749 0ZM2.25749 18.2059 4.41014 18.2059 4.41014 15.4767 2.25749 15.4767Z" transform="matrix(6.12325e-17 -1.00167 -1 -6.13347e-17 280.832 321.232)"/><path d="M11.688 12.6015 11.688 10.5873C11.079 10.9243 10.4688 11.1764 9.85731 11.3436 9.24582 11.5108 8.62811 11.5944 8.00414 11.5944 6.60648 11.5944 5.5208 11.1514 4.74709 10.2654 3.97588 9.38185 3.59027 8.14019 3.59027 6.54035 3.59027 4.94052 3.97588 3.69759 4.74709 2.81157 5.5208 1.92804 6.60648 1.48627 8.00414 1.48627 8.62811 1.48627 9.24582 1.56988 9.85731 1.7371 10.4688 1.90433 11.079 2.1564 11.688 2.49333L11.688 0.501664C11.0865 0.22213 10.4638 0.0124792 9.81988-0.127288 9.17845-0.269551 8.49458-0.340683 7.7683-0.340683 5.79409-0.340683 4.22545 0.279535 3.06238 1.51997 1.90183 2.76039 1.32155 4.43386 1.32155 6.54035 1.32155 8.67677 1.90807 10.3565 3.08112 11.5794 4.25665 12.8049 5.86648 13.4176 7.91055 13.4176 8.57195 13.4176 9.21839 13.349 9.84983 13.2117 10.4813 13.0769 11.094 12.8735 11.688 12.6015Z" transform="matrix(6.12325e-17 -1.00167 -1 -6.13347e-17 280.832 314.564)"/><path d="M2.25749 18.2059 4.41014 18.2059 4.41014 0 2.25749 0Z" transform="matrix(6.12325e-17 -1.00167 -1 -6.13347e-17 280.832 301.368)"/><path d="M13.4663 7.09069 13.4663 6.03868 3.5678 6.03868C3.66265 4.55615 4.10939 3.42679 4.90807 2.65058 5.70673 1.87438 6.81987 1.48627 8.24751 1.48627 9.07362 1.48627 9.87478 1.58735 10.651 1.78952 11.4272 1.99168 12.1984 2.29617 12.9646 2.70298L12.9646 0.666389C12.1909 0.339435 11.3985 0.0898502 10.5873-0.0823627 9.77621-0.254576 8.95382-0.340683 8.1202-0.340683 6.02871-0.340683 4.37271 0.267054 3.15223 1.48253 1.93178 2.70049 1.32155 4.34774 1.32155 6.42429 1.32155 8.56821 1.90058 10.2691 3.05864 11.527 4.21673 12.7874 5.77912 13.4176 7.74583 13.4176 9.5079 13.4176 10.9018 12.8498 11.9276 11.7142 12.9534 10.5811 13.4663 9.03994 13.4663 7.09069ZM11.3136 7.72338C11.2987 8.89891 10.9692 9.83735 10.3253 10.5387 9.68135 11.2425 8.82904 11.5944 7.7683 11.5944 6.56781 11.5944 5.60689 11.255 4.8856 10.5761 4.1643 9.89725 3.74874 8.94134 3.63893 7.7084Z" transform="matrix(6.12325e-17 -1.00167 -1 -6.13347e-17 280.832 294.7)"/><path d="M10.6098 12.7175 10.6098 10.6809C10.0033 10.9929 9.37188 11.2263 8.71547 11.381 8.06155 11.5383 7.38269 11.6169 6.67886 11.6169 5.61065 11.6169 4.80948 11.4534 4.27538 11.1264 3.74127 10.7995 3.47421 10.3078 3.47421 9.6514 3.47421 9.15224 3.66515 8.76039 4.047 8.47587 4.42887 8.19134 5.19758 7.92055 6.35315 7.66348L7.09069 7.49875C8.61814 7.17179 9.70382 6.71006 10.3477 6.11355 10.9917 5.51704 11.3136 4.68469 11.3136 3.61648 11.3136 2.3985 10.8319 1.43386 9.86855 0.722544 8.90516 0.0137271 7.5811-0.340683 5.89643-0.340683 5.19509-0.340683 4.46381-0.272047 3.70257-0.134775 2.94134 0.00249585 2.14018 0.207155 1.29909 0.479201L1.29909 2.70298C2.09526 2.28868 2.87894 1.97795 3.65017 1.7708 4.42137 1.56614 5.18635 1.46381 5.94509 1.46381 6.95841 1.46381 7.73711 1.63727 8.28119 1.98419 8.82779 2.33111 9.10108 2.82029 9.10108 3.45173 9.10108 4.03578 8.90391 4.48376 8.50956 4.79575 8.11771 5.10773 7.25415 5.40848 5.91888 5.69799L5.17012 5.87395C3.83735 6.15349 2.87396 6.58403 2.27995 7.16554 1.68844 7.74708 1.39268 8.54451 1.39268 9.55781 1.39268 10.7908 1.82945 11.7417 2.70298 12.4106 3.57654 13.0819 4.81698 13.4176 6.42429 13.4176 7.21797 13.4176 7.96547 13.359 8.66681 13.2417 9.37063 13.1269 10.0183 12.9522 10.6098 12.7175Z" transform="matrix(6.12325e-17 -1.00167 -1 -6.13347e-17 280.832 279.935)"/><g clip-path="url(#clip14)"><path d="" stroke="#424242" stroke-width="4.85191" stroke-linecap="square" stroke-linejoin="round" fill="none" transform="matrix(1 0 0 1.00167 254 212.099)"/></g><g clip-path="url(#clip15)"><path d="" stroke="#424242" stroke-width="4.85191" stroke-linecap="square" stroke-linejoin="round" fill="none" transform="matrix(1 0 0 1.00167 254 212.099)"/></g><g clip-path="url(#clip16)"><path d="" stroke="#424242" stroke-width="4.85191" stroke-linecap="square" stroke-linejoin="round" fill="none" transform="matrix(1 0 0 1.00167 254 212.099)"/></g><g clip-path="url(#clip17)"><path d="" stroke="#424242" stroke-width="4.85191" stroke-linecap="square" stroke-linejoin="round" fill="none" transform="matrix(1 0 0 1.00167 254 212.099)"/></g><g clip-path="url(#clip18)"><path d="" stroke="#424242" stroke-width="4.85191" stroke-linecap="square" stroke-linejoin="round" fill="none" transform="matrix(1 0 0 1.00167 254 212.099)"/></g><g clip-path="url(#clip19)"><path d="" stroke="#424242" stroke-width="4.85191" stroke-linecap="square" stroke-linejoin="round" fill="none" transform="matrix(1 0 0 1.00167 254 212.099)"/></g><g clip-path="url(#clip20)"><path d="" stroke="#424242" stroke-width="4.85191" stroke-linecap="square" stroke-linejoin="round" fill="none" transform="matrix(1 0 0 1.00167 254 212.099)"/></g><g clip-path="url(#clip21)"><path d="" stroke="#424242" stroke-width="4.85191" stroke-linecap="square" stroke-linejoin="round" fill="none" transform="matrix(1 0 0 1.00167 254 212.099)"/></g><g clip-path="url(#clip22)"><path d="" stroke="#424242" stroke-width="4.85191" stroke-linecap="square" stroke-linejoin="round" fill="none" transform="matrix(1 0 0 1.00167 254 212.099)"/></g><g clip-path="url(#clip23)"><path d="" stroke="#424242" stroke-width="4.85191" stroke-linecap="square" stroke-linejoin="round" fill="none" transform="matrix(1 0 0 1.00167 254 212.099)"/></g><path d="M101.889 334.243 101.889 8.62562" stroke="#000000" stroke-width="2.24625" stroke-linecap="square" fill="none" transform="matrix(1 0 0 1.00167 254 212.099)"/><path d="M770.374 334.243 770.374 8.62562" stroke="#000000" stroke-width="2.24625" stroke-linecap="square" fill="none" transform="matrix(1 0 0 1.00167 254 212.099)"/><path d="M101.889 334.243 770.374 334.243" stroke="#000000" stroke-width="2.24625" stroke-linecap="square" fill="none" transform="matrix(1 0 0 1.00167 254 212.099)"/><path d="M101.889 8.62562 770.374 8.62562" stroke="#000000" stroke-width="2.24625" stroke-linecap="square" fill="none" transform="matrix(1 0 0 1.00167 254 212.099)"/></g></g></g><rect x="367" y="234" width="66" height="313" stroke="#8C3836" stroke-width="1.66667" stroke-linejoin="round" stroke-miterlimit="10" fill="#7030A0"/><rect x="433" y="326" width="65" height="219" stroke="#71893F" stroke-width="1.66667" stroke-linejoin="round" stroke-miterlimit="10" fill="#9BBB59"/><rect x="498" y="354" width="65" height="191" stroke="#357D91" stroke-width="1.66667" stroke-linejoin="round" stroke-miterlimit="10" fill="#4BACC6"/></g></svg>